<?xml version="1.0" standalone="no"?>
<!DOCTYPE svg PUBLIC "-//W3C//DTD SVG 20010904//EN"
 "http://www.w3.org/TR/2001/REC-SVG-20010904/DTD/svg10.dtd">
<svg version="1.0" xmlns="http://www.w3.org/2000/svg"
 width="512.000000pt" height="512.000000pt" viewBox="0 0 512.000000 512.000000"
 preserveAspectRatio="xMidYMid meet">
<metadata>
Created by potrace 1.14, written by Peter Selinger 2001-2017
</metadata>
<g transform="translate(0.000000,512.000000) scale(0.100000,-0.100000)"
fill="#000000" stroke="none">
<path d="M2385 4939 c-122 -35 -207 -56 -375 -94 -272 -62 -405 -98 -421 -114
-13 -12 -18 -44 -23 -131 -4 -63 -8 -131 -10 -150 -3 -19 -7 -69 -10 -110 -4
-41 -8 -95 -11 -120 -2 -25 -7 -79 -11 -120 -4 -41 -8 -88 -9 -105 -2 -16 -6
-68 -10 -115 -3 -47 -8 -96 -10 -110 -2 -14 -6 -65 -10 -115 -3 -49 -8 -108
-10 -130 -6 -60 -27 -283 -30 -335 -6 -79 -16 -194 -20 -230 -2 -19 -7 -71
-11 -115 -3 -44 -8 -93 -9 -110 -2 -16 -6 -70 -10 -120 -4 -49 -8 -96 -10
-105 -1 -8 -6 -55 -10 -105 -3 -49 -8 -106 -10 -125 -2 -19 -6 -69 -10 -110
-3 -41 -8 -95 -10 -120 -10 -113 -16 -174 -26 -295 -6 -71 -12 -143 -14 -160
-2 -16 -7 -77 -11 -135 -6 -100 -5 -106 16 -125 28 -26 93 -24 175 5 61 21
362 120 380 125 6 1 17 5 25 8 8 4 65 22 126 41 130 40 184 62 184 73 1 36 11
184 14 208 3 27 11 100 21 210 22 220 23 227 56 260 l31 30 16 -24 c21 -31
232 -312 246 -328 20 -22 31 -37 91 -118 32 -44 61 -82 65 -85 3 -3 17 -21 30
-40 13 -19 40 -55 60 -80 20 -25 83 -103 140 -175 107 -136 171 -200 199 -203
62 -7 100 1 211 43 97 38 395 183 440 215 16 11 31 20 35 20 3 0 23 12 43 27
20 15 38 28 40 29 10 5 -14 33 -32 38 -18 4 -196 183 -286 286 -12 14 -185
200 -255 275 -47 50 -113 124 -150 170 -22 27 -45 53 -50 59 -6 6 -50 59 -99
118 -49 60 -93 108 -97 108 -23 0 1 31 133 173 181 194 217 234 308 337 41 46
82 91 90 100 12 13 102 114 160 180 63 71 138 156 155 174 99 105 163 191 151
203 -9 10 -134 5 -321 -12 -27 -2 -90 -7 -140 -10 -49 -3 -117 -8 -150 -10
-33 -2 -100 -7 -150 -10 -49 -3 -117 -8 -150 -11 -65 -5 -62 -3 -152 -110
-137 -164 -238 -283 -262 -309 -15 -16 -53 -61 -86 -100 -83 -100 -216 -245
-225 -245 -3 0 -3 24 0 53 4 28 11 88 15 131 4 43 8 86 10 95 1 9 6 50 10 91
3 41 8 86 10 100 2 14 6 54 10 90 4 36 8 81 10 100 6 52 16 149 20 195 8 78
15 141 20 195 8 67 11 93 20 190 4 41 8 82 10 90 2 8 6 52 10 98 4 46 8 91 10
100 1 9 6 55 11 102 4 47 8 87 9 90 5 18 18 188 16 200 -7 42 -66 59 -136 39z"/>
<path d="M2397 1164 c-1 -1 -81 -5 -177 -9 -177 -7 -225 -10 -315 -19 -27 -3
-77 -8 -110 -11 -33 -4 -73 -8 -90 -11 -16 -3 -48 -7 -70 -9 -22 -3 -60 -9
-85 -15 -25 -5 -56 -12 -70 -14 -93 -15 -248 -64 -312 -98 -34 -18 -66 -45
-81 -67 -20 -30 -34 -39 -78 -50 -90 -22 -200 -72 -241 -109 -74 -67 -43 -143
84 -202 55 -26 206 -71 278 -84 14 -2 63 -11 110 -19 98 -18 147 -24 245 -32
39 -4 81 -8 95 -10 14 -3 70 -7 125 -10 55 -3 132 -8 170 -10 215 -13 658 -4
960 20 76 6 86 7 255 30 121 16 162 20 325 30 55 3 111 8 125 10 14 2 59 6
100 10 79 7 100 9 165 20 22 3 52 8 68 11 115 18 199 37 306 70 187 58 255
141 184 225 -37 44 -148 93 -289 129 -65 16 -149 43 -188 59 -77 32 -232 74
-336 90 -36 6 -74 13 -85 15 -11 2 -49 7 -85 11 -36 4 -72 9 -80 10 -13 2 -59
7 -215 21 -102 9 -680 24 -688 18z m558 -68 c72 -4 148 -10 170 -12 22 -3 67
-7 100 -10 148 -14 218 -23 295 -39 l65 -14 -70 5 c-38 2 -115 7 -170 11 -214
14 -900 6 -1015 -12 -14 -2 -56 -7 -95 -10 -61 -5 -249 -28 -325 -40 -14 -2
-78 -7 -142 -10 -65 -3 -126 -8 -135 -9 -10 -2 -58 -7 -107 -11 -50 -4 -98 -8
-107 -10 -10 -2 -42 -6 -71 -9 -29 -4 -64 -8 -78 -11 -14 -2 -47 -9 -75 -14
l-50 -9 28 22 c46 37 255 101 392 121 23 3 50 7 61 9 12 2 45 7 75 11 30 3 65
8 79 10 14 2 57 7 95 10 39 3 86 8 105 10 19 2 94 6 165 10 72 4 131 8 132 9
5 5 564 -2 678 -8z m662 -82 c-3 -3 -12 -4 -19 -1 -8 3 -5 6 6 6 11 1 17 -2
13 -5z m-227 -38 c96 -7 193 -16 222 -21 13 -2 56 -6 97 -10 41 -3 77 -7 80
-9 3 -2 30 -7 60 -10 98 -12 141 -47 106 -86 -32 -36 -197 -109 -228 -102 -4
1 -17 -3 -28 -9 -17 -9 -25 -6 -47 16 -67 67 -239 124 -507 170 -37 6 -265 32
-360 41 -72 7 -136 11 -240 15 l-60 2 55 7 c64 7 740 5 850 -4z m-700 -70 c19
-3 67 -7 105 -10 106 -9 165 -15 215 -21 229 -29 428 -75 527 -122 80 -38 80
-47 3 -58 -25 -3 -85 -12 -135 -20 -49 -8 -126 -17 -170 -21 -44 -3 -87 -8
-96 -9 -129 -24 -993 -25 -1174 -1 -16 2 -64 7 -105 11 -86 8 -129 13 -185 21
-22 4 -47 8 -55 9 -82 13 -101 20 -114 40 -14 21 -13 26 5 49 33 42 154 89
326 125 79 17 125 19 453 15 201 -2 381 -5 400 -8z m-1115 -24 c-27 -4 -94
-51 -118 -84 -11 -14 -19 -38 -19 -52 0 -31 1 -30 -69 -10 -98 28 -186 65
-204 84 -17 19 -17 20 6 21 13 0 31 2 39 4 26 5 94 16 130 21 19 2 51 6 70 9
19 2 62 7 95 11 33 3 62 8 64 10 2 2 9 0 15 -4 7 -4 3 -8 -9 -10z m2555 -17
c93 -28 153 -56 187 -87 51 -48 -27 -103 -223 -158 -40 -10 -85 -22 -100 -25
-16 -2 -40 -7 -54 -10 -59 -11 -77 -15 -115 -20 -22 -2 -56 -7 -75 -10 -55 -7
-120 -14 -179 -20 l-54 -5 62 31 c42 21 70 44 87 69 21 32 34 40 92 55 91 24
223 88 246 121 11 15 19 40 19 56 0 15 6 28 12 28 6 0 49 -11 95 -25z m-3020
-75 c44 -41 162 -93 260 -114 112 -24 150 -35 185 -53 78 -41 275 -91 460
-118 73 -10 92 -13 174 -20 41 -4 82 -8 91 -10 22 -4 222 -17 282 -19 25 0 45
-3 43 -6 -12 -19 -693 -15 -930 5 -141 11 -193 16 -215 20 -14 2 -50 6 -80 9
-30 4 -67 8 -83 11 -113 20 -145 26 -164 30 -13 3 -33 7 -45 10 -63 13 -87 20
-113 29 -149 56 -203 93 -185 126 14 26 56 53 120 78 50 19 145 50 161 51 4 1
22 -13 39 -29z m2490 -151 c-91 -61 -316 -124 -462 -129 -206 -7 -602 1 -758
15 -25 2 -79 7 -120 10 -41 4 -88 8 -105 10 -90 12 -114 15 -150 21 -107 17
-120 23 -40 19 560 -28 856 -25 1260 10 39 4 81 8 95 10 14 2 48 7 75 10 28 4
84 12 125 20 98 16 97 16 80 4z"/>
</g>
</svg>
