<?xml version="1.0" encoding="utf-8"?>
<svg viewBox="0 0 500 500" xmlns="http://www.w3.org/2000/svg">
  <path d="M 249.569 345.913 C 231.76 345.913 215.751 338.202 204.7 325.937 C 195.332 331.916 184.202 335.381 172.264 335.381 C 138.919 335.381 111.888 308.35 111.888 275.005 C 111.888 241.66 138.919 214.629 172.264 214.629 C 175.852 214.629 179.366 214.942 182.781 215.542 C 182.775 215.183 182.772 214.823 182.772 214.463 C 182.772 181.118 209.803 154.087 243.148 154.087 C 275.595 154.087 302.064 179.682 303.466 211.784 C 310.893 208.52 319.103 206.708 327.736 206.708 C 361.081 206.708 388.112 233.739 388.112 267.084 C 388.112 300.429 361.081 327.46 327.736 327.46 C 317.337 327.46 307.551 324.831 299.009 320.201 C 288.086 335.75 270.015 345.913 249.569 345.913 Z" style="fill: rgba(255, 255, 255, 0.51); stroke-miterlimit: 8; stroke-width: 7px; stroke: rgb(230, 148, 17); stroke-opacity: 0.34;"/>
</svg>