<?xml version="1.0" encoding="utf-8"?>
<svg viewBox="0 0 500 500" xmlns="http://www.w3.org/2000/svg">
  <defs>
    <linearGradient id="linearGradient4574" spreadMethod="pad" gradientTransform="matrix(2.403183,4.177002,4.177002,-2.403183,264.16357,62.728516)" gradientUnits="userSpaceOnUse" y2="0" x2="1" y1="0" x1="0">
      <stop id="stop4576" offset="0" style="stop-opacity:1;stop-color:#fcbd73"/>
      <stop id="stop4578" offset="0.1162" style="stop-opacity:1;stop-color:#fcbd73"/>
      <stop id="stop4580" offset="1" style="stop-opacity:1;stop-color:#bd915b"/>
    </linearGradient>
    <clipPath id="clipPath4588" clipPathUnits="userSpaceOnUse">
      <path id="path4590" d="m 0,595.276 841.89,0 L 841.89,0 0,0 0,595.276 Z"/>
    </clipPath>
    <linearGradient id="linearGradient4612" spreadMethod="pad" gradientTransform="matrix(-6.5355072,-3.4861145,-3.4861145,6.5355072,310.8252,85.445312)" gradientUnits="userSpaceOnUse" y2="0" x2="1" y1="0" x1="0">
      <stop id="stop4614" offset="0" style="stop-opacity:1;stop-color:#fcbd73"/>
      <stop id="stop4616" offset="0.1162" style="stop-opacity:1;stop-color:#fcbd73"/>
      <stop id="stop4618" offset="1" style="stop-opacity:1;stop-color:#bd915b"/>
    </linearGradient>
    <linearGradient id="linearGradient4634" spreadMethod="pad" gradientTransform="matrix(-4.4893494,4.9695892,4.9695892,4.4893494,304.66602,52.220703)" gradientUnits="userSpaceOnUse" y2="0" x2="1" y1="0" x1="0">
      <stop id="stop4636" offset="0" style="stop-opacity:1;stop-color:#fcbd73"/>
      <stop id="stop4638" offset="0.1162" style="stop-opacity:1;stop-color:#fcbd73"/>
      <stop id="stop4640" offset="1" style="stop-opacity:1;stop-color:#bd915b"/>
    </linearGradient>
    <clipPath id="clipPath4648" clipPathUnits="userSpaceOnUse">
      <path id="path4650" d="m 0,595.276 841.89,0 L 841.89,0 0,0 0,595.276 Z"/>
    </clipPath>
    <radialGradient id="radialGradient4672" spreadMethod="pad" gradientTransform="matrix(41.019562,0,0,-41.019546,297.6001,53.922852)" gradientUnits="userSpaceOnUse" r="1" cy="0" cx="0">
      <stop id="stop4674" offset="0" style="stop-opacity:1;stop-color:#fcbd73"/>
      <stop id="stop4676" offset="0.4888" style="stop-opacity:1;stop-color:#fcbd73"/>
      <stop id="stop4678" offset="0.5482" style="stop-opacity:1;stop-color:#fcbd73"/>
      <stop id="stop4680" offset="1" style="stop-opacity:1;stop-color:#bd915b"/>
    </radialGradient>
    <linearGradient id="linearGradient4696" spreadMethod="pad" gradientTransform="matrix(5.8805389,-12.256012,-12.256012,-5.8805389,305.18799,74.873047)" gradientUnits="userSpaceOnUse" y2="0" x2="1" y1="0" x1="0">
      <stop id="stop4698" offset="0" style="stop-opacity:1;stop-color:#fcbd73"/>
      <stop id="stop4700" offset="0.1162" style="stop-opacity:1;stop-color:#fcbd73"/>
      <stop id="stop4702" offset="1" style="stop-opacity:1;stop-color:#bd915b"/>
    </linearGradient>
    <clipPath id="clipPath4710" clipPathUnits="userSpaceOnUse">
      <path id="path4712" d="m 0,595.276 841.89,0 L 841.89,0 0,0 0,595.276 Z"/>
    </clipPath>
    <linearGradient id="linearGradient4730" spreadMethod="pad" gradientTransform="matrix(-4.5338898,-19.552734,-19.552734,4.5338898,281.59521,72.360352)" gradientUnits="userSpaceOnUse" y2="0" x2="1" y1="0" x1="0">
      <stop id="stop4732" offset="0" style="stop-opacity:1;stop-color:#fcbd73"/>
      <stop id="stop4734" offset="0.1162" style="stop-opacity:1;stop-color:#fcbd73"/>
      <stop id="stop4736" offset="1" style="stop-opacity:1;stop-color:#bd915b"/>
    </linearGradient>
    <radialGradient id="radialGradient4752" spreadMethod="pad" gradientTransform="matrix(8.8022003,0,0,-8.8021851,274.5625,68.952148)" gradientUnits="userSpaceOnUse" r="1" cy="0" cx="0">
      <stop id="stop4754" offset="0" style="stop-opacity:1;stop-color:#ffd090"/>
      <stop id="stop4756" offset="1" style="stop-opacity:1;stop-color:#fcbd73"/>
    </radialGradient>
    <clipPath id="clipPath4764" clipPathUnits="userSpaceOnUse">
      <path id="path4766" d="m 0,595.276 841.89,0 L 841.89,0 0,0 0,595.276 Z"/>
    </clipPath>
    <linearGradient id="linearGradient4788" spreadMethod="pad" gradientTransform="matrix(11.865967,0,0,-11.865967,296.74707,61.594727)" gradientUnits="userSpaceOnUse" y2="0" x2="1" y1="0" x1="0">
      <stop id="stop4790" offset="0" style="stop-opacity:1;stop-color:#fcbd73"/>
      <stop id="stop4792" offset="0.1162" style="stop-opacity:1;stop-color:#fcbd73"/>
      <stop id="stop4794" offset="1" style="stop-opacity:1;stop-color:#bd915b"/>
    </linearGradient>
    <radialGradient id="radialGradient4810" spreadMethod="pad" gradientTransform="matrix(3.0480347,11.320435,11.320435,-3.0480347,296.31055,64.150391)" gradientUnits="userSpaceOnUse" r="1" cy="0" cx="0">
      <stop id="stop4812" offset="0" style="stop-opacity:1;stop-color:#ffd090"/>
      <stop id="stop4814" offset="1" style="stop-opacity:1;stop-color:#fcbd73"/>
    </radialGradient>
    <clipPath id="clipPath4822" clipPathUnits="userSpaceOnUse">
      <path id="path4824" d="m 0,595.276 841.89,0 L 841.89,0 0,0 0,595.276 Z"/>
    </clipPath>
    <radialGradient id="radialGradient4850" spreadMethod="pad" gradientTransform="matrix(65.595093,0,0,-65.595093,262.63965,144.16406)" gradientUnits="userSpaceOnUse" r="1" cy="0" cx="0">
      <stop id="stop4852" offset="0" style="stop-opacity:1;stop-color:#ffd090"/>
      <stop id="stop4854" offset="0.1018" style="stop-opacity:1;stop-color:#ffd090"/>
      <stop id="stop4856" offset="0.8764" style="stop-opacity:1;stop-color:#d19f63"/>
      <stop id="stop4858" offset="1" style="stop-opacity:1;stop-color:#fcbd73"/>
    </radialGradient>
    <clipPath id="clipPath4866" clipPathUnits="userSpaceOnUse">
      <path id="path4868" d="m 0,595.276 841.89,0 L 841.89,0 0,0 0,595.276 Z"/>
    </clipPath>
    <linearGradient id="linearGradient4898" spreadMethod="pad" gradientTransform="matrix(0,7.6526337,7.6526337,0,263.51367,74.716797)" gradientUnits="userSpaceOnUse" y2="0" x2="1" y1="0" x1="0">
      <stop id="stop4900" offset="0" style="stop-opacity:1;stop-color:#ee3338"/>
      <stop id="stop4902" offset="0.0441" style="stop-opacity:1;stop-color:#ee3338"/>
      <stop id="stop4904" offset="1" style="stop-opacity:1;stop-color:#8f2a2a"/>
    </linearGradient>
    <radialGradient id="radialGradient4920" spreadMethod="pad" gradientTransform="matrix(75.469894,0,0,-75.469879,262.09668,142.2832)" gradientUnits="userSpaceOnUse" r="1" cy="0" cx="0">
      <stop id="stop4922" offset="0" style="stop-opacity:1;stop-color:#ffffff"/>
      <stop id="stop4924" offset="0.5727" style="stop-opacity:1;stop-color:#ffffff"/>
      <stop id="stop4926" offset="0.8371" style="stop-opacity:1;stop-color:#bec0c2"/>
      <stop id="stop4928" offset="1" style="stop-opacity:1;stop-color:#e7e8e9"/>
    </radialGradient>
    <clipPath id="clipPath4936" clipPathUnits="userSpaceOnUse">
      <path id="path4938" d="m 0,595.276 841.89,0 L 841.89,0 0,0 0,595.276 Z"/>
    </clipPath>
    <radialGradient id="radialGradient4956" spreadMethod="pad" gradientTransform="matrix(8.0430603,0,0,-6.7534332,260.79639,97.411133)" gradientUnits="userSpaceOnUse" r="1" cy="0" cx="0">
      <stop id="stop4958" offset="0" style="stop-opacity:1;stop-color:#ffffff"/>
      <stop id="stop4960" offset="0.1629" style="stop-opacity:1;stop-color:#858789"/>
      <stop id="stop4962" offset="0.1927" style="stop-opacity:1;stop-color:#858789"/>
      <stop id="stop4964" offset="0.8371" style="stop-opacity:1;stop-color:#373535"/>
      <stop id="stop4966" offset="1" style="stop-opacity:1;stop-color:#606163"/>
    </radialGradient>
    <clipPath id="clipPath4974" clipPathUnits="userSpaceOnUse">
      <path id="path4976" d="m 0,595.276 841.89,0 L 841.89,0 0,0 0,595.276 Z"/>
    </clipPath>
    <radialGradient id="radialGradient5026" spreadMethod="pad" gradientTransform="matrix(1.9654388,0,0,-1.9654388,271.2998,107.31445)" gradientUnits="userSpaceOnUse" r="1" cy="0" cx="0">
      <stop id="stop5028" offset="0" style="stop-opacity:1;stop-color:#ffffff"/>
      <stop id="stop5030" offset="0.3219" style="stop-opacity:1;stop-color:#373535"/>
      <stop id="stop5032" offset="1" style="stop-opacity:1;stop-color:#373535"/>
    </radialGradient>
    <radialGradient id="radialGradient5048" spreadMethod="pad" gradientTransform="matrix(1.9655762,0,0,-1.9655762,252.66504,107.31445)" gradientUnits="userSpaceOnUse" r="1" cy="0" cx="0">
      <stop id="stop5050" offset="0" style="stop-opacity:1;stop-color:#ffffff"/>
      <stop id="stop5052" offset="0.3219" style="stop-opacity:1;stop-color:#373535"/>
      <stop id="stop5054" offset="1" style="stop-opacity:1;stop-color:#373535"/>
    </radialGradient>
  </defs>
  <g transform="matrix(1, 0, 0, 1, 16.240814, 4.783112)">
    <g id="g4562" transform="matrix(4.538967, 0, 0, -4.538967, -1004.754272, 671.017578)" style="">
      <g id="g4564">
        <g id="g4570">
          <g id="g4572">
            <path id="path4582" style="fill:url(#linearGradient4574);stroke:none" d="m 261.077,67.195 c 0,0 -1.835,-3.441 -4.902,-0.859 l 0,0 c -1.618,1.366 -4.297,-0.008 -3.363,-2.597 l 0,0 c 0.19,-0.424 0.803,-0.807 1.242,-0.766 l 0,0 c 0.317,-0.561 0.941,-0.972 2.018,-1.062 l 0,0 c 0.086,-0.567 1.269,-1.406 2.042,-1.104 l 0,0 c 2.547,-1.227 3.108,-1.755 4.265,-1.368 l 0,0 c 1.35,0.453 2.537,3.405 3.219,4.537 l 0,0 c 0.681,1.133 3.137,3.579 6.631,1.837 l 0,0 c 4.891,-2.442 8.206,1.561 8.916,4.102 l 0,0 c 1.073,3.849 -1.168,7.833 -7.748,8.369 l 0,0 c -0.197,0.016 -0.391,0.024 -0.583,0.024 l 0,0 c -5.498,-0.001 -9.444,-6.381 -11.737,-11.113"/>
          </g>
        </g>
      </g>
    </g>
    <g id="g4584" transform="matrix(4.538967, 0, 0, -4.538967, -1004.754272, 671.017578)" style="">
      <g clip-path="url(#clipPath4588)" id="g4586">
        <g transform="translate(258.1704,64.6016)" id="g4592">
          <path id="path4594" style="fill:#d99f7f;fill-opacity:1;fill-rule:nonzero;stroke:none" d="m 0,0 c 0,0 -1.898,-0.059 -2.229,-2.745 0,0 -0.462,0.914 0.297,1.969 C -1.292,0.111 0,0 0,0"/>
        </g>
        <g transform="translate(256.0962,65.7412)" id="g4596">
          <path id="path4598" style="fill:#d99f7f;fill-opacity:1;fill-rule:nonzero;stroke:none" d="m 0,0 c 0,0 -1.896,-0.059 -2.229,-2.745 0,0 -0.461,0.916 0.298,1.969 C -1.292,0.11 0,0 0,0"/>
        </g>
      </g>
    </g>
    <g id="g4600" transform="matrix(4.538967, 0, 0, -4.538967, -1004.754272, 671.017578)" style="">
      <g id="g4602">
        <g id="g4608">
          <g id="g4610">
            <path id="path4620" style="fill:url(#linearGradient4612);stroke:none" d="m 302.893,78.75 0.231,-1.584 c 20.959,-0.524 12.618,18.357 12.618,18.357 l 0,0 C 314.784,87.281 302.893,78.75 302.893,78.75"/>
          </g>
        </g>
      </g>
    </g>
    <g id="g4622" transform="matrix(4.538967, 0, 0, -4.538967, -1004.754272, 671.017578)" style="">
      <g id="g4624">
        <g id="g4630">
          <g id="g4632">
            <path id="path4642" style="fill:url(#linearGradient4634);stroke:none" d="m 289.097,62.852 c -0.246,-5.802 6.556,-9.67 11.533,-11.846 l 0,0 c 0,0 3.496,-1.691 1.046,-4.85 l 0,0 c -1.294,-1.665 0.175,-4.281 2.72,-3.252 l 0,0 c 0.411,0.207 0.771,0.833 0.712,1.269 l 0,0 c 0.545,0.337 0.932,0.975 0.981,2.05 l 0,0 c 0.561,0.11 1.352,1.32 1.022,2.08 l 0,0 c 1.122,2.588 1.63,3.167 1.195,4.303 l 0,0 c -0.504,1.326 -3.491,2.394 -4.646,3.029 l 0,0 c -1.156,0.638 -3.688,2.987 -2.089,6.539 l 0,0 c 2.239,4.969 -1.876,8.117 -4.437,8.725 l 0,0 c -0.529,0.126 -1.059,0.19 -1.579,0.19 l 0,0 c -3.288,0 -6.215,-2.557 -6.458,-8.237"/>
          </g>
        </g>
      </g>
    </g>
    <g id="g4644" transform="matrix(4.538967, 0, 0, -4.538967, -1004.754272, 671.017578)" style="">
      <g clip-path="url(#clipPath4648)" id="g4646">
        <g transform="translate(303.3154,48.2871)" id="g4652">
          <path id="path4654" style="fill:#da9e6c;fill-opacity:1;fill-rule:nonzero;stroke:none" d="m 0,0 c 0,0 0.134,-1.842 2.753,-2.064 0,0 -0.871,-0.482 -1.925,0.215 C -0.058,-1.26 0,0 0,0"/>
        </g>
        <g transform="translate(302.2915,46.2295)" id="g4656">
          <path id="path4658" style="fill:#da9e6c;fill-opacity:1;fill-rule:nonzero;stroke:none" d="m 0,0 c 0,0 0.125,-1.843 2.748,-2.065 0,0 -0.867,-0.481 -1.922,0.216 C -0.063,-1.262 0,0 0,0"/>
        </g>
      </g>
    </g>
    <g id="g4660" transform="matrix(4.538967, 0, 0, -4.538967, -1004.754272, 671.017578)" style="">
      <g id="g4662">
        <g id="g4668">
          <g id="g4670">
            <path id="path4682" style="fill:url(#radialGradient4672);stroke:none" d="m 261.988,80.775 c 0.674,-21.341 24.027,-28.76 33.597,-27.514 l 0,0 c 7.305,0.955 11.528,4.922 13.959,9.363 l 0,0 c 2.562,4.678 4.889,11.313 -0.607,17.477 l 0,0 c -5.086,5.703 -9.349,4.344 -13.25,2.985 l 0,0 c -1.785,-0.622 -3.494,-1.243 -5.171,-1.189 l 0,0 c -6.961,0.225 -8.311,11.683 -8.311,11.683 l 0,0 c 0,0 -20.566,-1.677 -20.217,-12.805"/>
          </g>
        </g>
      </g>
    </g>
    <g id="g4684" transform="matrix(4.538967, 0, 0, -4.538967, -1004.754272, 671.017578)" style="">
      <g id="g4686">
        <g id="g4692">
          <g id="g4694">
            <path id="path4704" style="fill:url(#linearGradient4696);stroke:none" d="m 306.425,65.706 3.012,-3.271 c 0.034,0.064 0.073,0.126 0.107,0.189 l 0,0 c 0.456,0.833 0.903,1.731 1.306,2.675 l 0,0 c -0.209,0.697 -0.336,1.663 -0.317,3.028 l 0,0 c 0.1,7.009 -7.014,7.085 -7.014,7.085 l 0,0 2.906,-9.706 z"/>
          </g>
        </g>
      </g>
    </g>
    <g id="g4706" transform="matrix(4.538967, 0, 0, -4.538967, -1004.754272, 671.017578)" style="">
      <g clip-path="url(#clipPath4710)" id="g4708">
        <g transform="translate(296.0469,83.2129)" id="g4714">
          <path id="path4716" style="fill:#6f3429;fill-opacity:1;fill-rule:nonzero;stroke:none" d="m 0,0 c -1.915,-0.659 -3.74,-1.372 -5.531,-1.315 -2.523,0.083 -4.308,1.641 -5.56,3.594 l -4.62,-3.334 c 0,0 1.461,-5.292 3.924,-5.749 2.466,-0.457 3.927,1.735 6.574,0.548 C -2.939,-7.276 0.748,-3.104 0,0"/>
        </g>
      </g>
    </g>
    <g id="g4718" transform="matrix(4.538967, 0, 0, -4.538967, -1004.754272, 671.017578)" style="">
      <g id="g4720">
        <g id="g4726">
          <g id="g4728">
            <path id="path4738" style="fill:url(#linearGradient4730);stroke:none" d="m 273.696,63.299 c 0,0 1.069,-2.88 2.075,-4.937 l 0,0 c 1.087,-0.652 2.2,-1.24 3.323,-1.766 l 0,0 c 2.419,0.722 6.039,2.769 5.937,6.278 l 0,0 c -0.144,4.989 -3.542,5.95 -3.542,5.95 l 0,0 -7.793,-5.525 z"/>
          </g>
        </g>
      </g>
    </g>
    <g id="g4740" transform="matrix(4.538967, 0, 0, -4.538967, -1004.754272, 671.017578)" style="">
      <g id="g4742">
        <g id="g4748">
          <g id="g4750">
            <path id="path4758" style="fill:url(#radialGradient4752);stroke:none" d="m 266.321,58.636 c 0,0 -1.879,-3.525 -5.018,-0.878 l 0,0 c -1.656,1.395 -4.398,-0.009 -3.445,-2.66 l 0,0 c 0.195,-0.434 0.824,-0.826 1.272,-0.787 l 0,0 c 0.325,-0.571 0.962,-0.991 2.063,-1.084 l 0,0 c 0.091,-0.581 1.303,-1.441 2.093,-1.131 l 0,0 c 2.607,-1.257 3.184,-1.798 4.365,-1.4 l 0,0 c 1.381,0.465 2.596,3.486 3.298,4.644 l 0,0 c 0.697,1.159 3.15,3.73 7.068,2.93 l 0,0 c 3.472,-0.71 6.306,3.044 6.163,5.594 l 0,0 c -0.126,2.292 -1.166,5.75 -5.739,6.024 l 0,0 c -0.153,0.009 -0.306,0.013 -0.456,0.013 l 0,0 c -5.685,0 -9.298,-6.38 -11.664,-11.265"/>
          </g>
        </g>
      </g>
    </g>
    <g id="g4760" transform="matrix(4.538967, 0, 0, -4.538967, -1004.754272, 671.017578)" style="">
      <g clip-path="url(#clipPath4764)" id="g4762">
        <g transform="translate(263.3452,55.9814)" id="g4768">
          <path id="path4770" style="fill:#d99f7f;fill-opacity:1;fill-rule:nonzero;stroke:none" d="m 0,0 c 0,0 -1.946,-0.061 -2.285,-2.811 0,0 -0.472,0.935 0.305,2.015 C -1.325,0.113 0,0 0,0"/>
        </g>
        <g transform="translate(261.2207,57.1465)" id="g4772">
          <path id="path4774" style="fill:#d99f7f;fill-opacity:1;fill-rule:nonzero;stroke:none" d="m 0,0 c 0,0 -1.942,-0.059 -2.285,-2.809 0,0 -0.47,0.934 0.306,2.013 C -1.323,0.114 0,0 0,0"/>
        </g>
      </g>
    </g>
    <g id="g4776" transform="matrix(4.538967, 0, 0, -4.538967, -1004.754272, 671.017578)" style="">
      <g id="g4778">
        <g id="g4784">
          <g id="g4786">
            <path id="path4796" style="fill:url(#linearGradient4788);stroke:none" d="m 302.533,55.451 c 2.54,1.396 4.456,3.287 5.899,5.376 l 0,0 -11.424,6.912 c 0,0 -2.249,-6.032 5.525,-12.288"/>
          </g>
        </g>
      </g>
    </g>
    <g id="g4798" transform="matrix(4.538967, 0, 0, -4.538967, -1004.754272, 671.017578)" style="">
      <g id="g4800">
        <g id="g4806">
          <g id="g4808">
            <path id="path4816" style="fill:url(#radialGradient4810);stroke:none" d="m 296.23,65.236 c 0.996,-6.245 9.098,-8.899 14.881,-10.144 l 0,0 c 0,0 4.1,-1.049 2.166,-4.952 l 0,0 c -1.022,-2.06 1.118,-4.533 3.61,-2.882 l 0,0 c 0.397,0.31 0.646,1.059 0.487,1.509 l 0,0 c 0.51,0.478 0.782,1.241 0.604,2.4 l 0,0 c 0.572,0.239 1.154,1.705 0.639,2.444 l 0,0 c 0.638,3.005 1.052,3.736 0.345,4.851 l 0,0 c -0.826,1.309 -4.251,1.803 -5.62,2.229 l 0,0 c -1.371,0.432 -4.585,2.39 -3.647,6.527 l 0,0 c 1.315,5.791 -3.763,8.262 -6.627,8.354 l 0,0 c -0.088,0.003 -0.175,0.004 -0.263,0.004 l 0,0 c -4.223,0 -7.684,-3.396 -6.575,-10.34"/>
          </g>
        </g>
      </g>
    </g>
    <g id="g4818" transform="matrix(4.538967, 0, 0, -4.538967, -1004.754272, 671.017578)" style="">
      <g clip-path="url(#clipPath4822)" id="g4820">
        <g transform="translate(303.5952,61.2178)" id="g4826">
          <path id="path4828" style="fill:#6f3429;fill-opacity:1;fill-rule:nonzero;stroke:none" d="M 0,0 C 2.316,2.029 0.159,4.146 -1.57,4.313 -3.292,4.482 -3.166,7.693 -5.09,8.211 -5.75,8.39 -6.831,8.121 -7.542,7.275 -7.6,6.293 -7.56,5.212 -7.366,4.019 -7.121,2.477 -6.44,1.152 -5.466,0.014 -3.181,-1.148 -1.087,-0.953 0,0"/>
        </g>
        <g transform="translate(314.5732,52.7705)" id="g4830">
          <path id="path4832" style="fill:#da9e6c;fill-opacity:1;fill-rule:nonzero;stroke:none" d="m 0,0 c 0,0 0.533,-1.938 3.382,-1.607 0,0 -0.822,-0.704 -2.099,-0.186 C 0.207,-1.357 0,0 0,0"/>
        </g>
        <g transform="translate(313.9175,50.3496)" id="g4834">
          <path id="path4836" style="fill:#da9e6c;fill-opacity:1;fill-rule:nonzero;stroke:none" d="m 0,0 c 0,0 0.537,-1.938 3.388,-1.606 0,0 -0.826,-0.705 -2.103,-0.186 C 0.211,-1.356 0,0 0,0"/>
        </g>
      </g>
    </g>
    <g id="g4838" transform="matrix(4.538967, 0, 0, -4.538967, -1004.754272, 671.017578)" style="">
      <g id="g4840">
        <g id="g4846">
          <g id="g4848">
            <path id="path4860" style="fill:url(#radialGradient4850);stroke:none" d="m 232.15,116.481 c 0,-2.088 0.245,-4.119 0.7,-6.077 l 0,0 c 0.067,-0.53 0.324,-3.176 -0.554,-7.148 l 0,0 c -0.092,-0.363 -0.184,-0.727 -0.261,-1.084 l 0,0 c -0.015,-0.053 -0.033,-0.155 -0.033,-0.155 l 0,0 c -0.284,-1.325 -0.489,-2.606 -0.618,-3.82 l 0,0 c -0.595,-5.608 0.45,-10.357 3.623,-13.937 l 0,0 c 3.938,-4.438 9.942,-6.842 14.858,-4.749 l 0,0 c 11.977,5.102 13.331,5.102 25.206,0 l 0,0 c 4.91,-2.107 10.922,0.311 14.859,4.749 l 0,0 c 3.174,3.58 4.217,8.329 3.625,13.937 l 0,0 c -0.131,1.214 -0.336,2.495 -0.619,3.82 l 0,0 0.015,0 c -1.373,5.178 -0.84,8.492 -0.84,8.492 l 0,0 -0.002,0 c 0.435,1.927 0.674,3.924 0.674,5.972 l 0,0 c 0,15.723 -13.575,28.468 -30.318,28.468 l 0,0 c -16.741,0 -30.315,-12.745 -30.315,-28.468"/>
          </g>
        </g>
      </g>
    </g>
    <g id="g4862" transform="matrix(4.538967, 0, 0, -4.538967, -1004.754272, 671.017578)" style="">
      <g clip-path="url(#clipPath4866)" id="g4864">
        <g transform="translate(261.5718,109.0781)" id="g4870">
          <path id="path4872" style="fill:#80432e;fill-opacity:1;fill-rule:nonzero;stroke:none" d="m 0,0 c -0.324,1.944 -6.097,7.439 -12.029,3.688 -10.337,-6.538 -12.824,-24.864 -7.906,-39.35 L -4.214,-24.802 0,0 Z"/>
        </g>
        <g transform="translate(249.0254,107.6143)" id="g4874">
          <path id="path4876" style="fill:#ffffff;fill-opacity:1;fill-rule:nonzero;stroke:none" d="m 0,0 c 0,-1.938 1.57,-3.51 3.509,-3.51 1.94,0 3.51,1.572 3.51,3.51 0,1.939 -1.57,3.511 -3.51,3.511 C 1.57,3.511 0,1.939 0,0"/>
        </g>
        <g transform="translate(264.4419,109.0781)" id="g4878">
          <path id="path4880" style="fill:#80432e;fill-opacity:1;fill-rule:nonzero;stroke:none" d="M 0,0 C 0.324,1.944 6.099,7.439 12.03,3.688 22.368,-2.85 24.253,-19.431 19.335,-33.919 L 4.214,-24.802 0,0 Z"/>
        </g>
        <g transform="translate(254.3633,76.123)" id="g4882">
          <path id="path4884" style="fill:#aaacae;fill-opacity:1;fill-rule:nonzero;stroke:none" d="m 0,0 c 0,0 7.92,-4.265 16.143,0.304 8.225,4.57 -2.74,5.178 -2.74,5.178 L 0.456,5.331 0,0 Z"/>
        </g>
      </g>
    </g>
    <g id="g4886" transform="matrix(4.538967, 0, 0, -4.538967, -1004.754272, 671.017578)" style="">
      <g id="g4888">
        <g id="g4894">
          <g id="g4896">
            <path id="path4906" style="fill:url(#linearGradient4898);stroke:none" d="m 255.86,84.982 -2.317,-6.955 c 0,0 10.822,-5.024 17.39,1.16 l 0,0 c 6.571,6.183 -1.62,6.516 -1.62,6.516 l 0,0 -13.453,-0.721 z"/>
          </g>
        </g>
      </g>
    </g>
    <g id="g4908" transform="matrix(4.538967, 0, 0, -4.538967, -1004.754272, 671.017578)" style="">
      <g id="g4910">
        <g id="g4916">
          <g id="g4918">
            <path id="path4930" style="fill:url(#radialGradient4920);stroke:none" d="m 250.847,142.781 c 2.197,-2.629 7.072,-9.367 8.319,-18.618 l 0,0 c 0.939,-6.987 0.36,-18.798 -4.864,-22.24 l 0,0 C 244.939,95.752 239.07,89.326 239.299,80.721 l 0,0 c 0.012,-0.482 0.039,-0.969 0.088,-1.466 l 0,0 c 0.975,-9.348 12.273,-11.9 13.781,-10.342 l 0,0 c 1.506,1.559 4.479,13.012 9.475,13.012 l 0,0 c 4.996,0 7.915,-11.738 10.02,-13.012 l 0,0 c 2.109,-1.276 12.807,0.994 13.779,10.342 l 0,0 c 0.073,0.692 0.102,1.368 0.099,2.032 l 0,0 c -0.04,8.321 -5.853,14.601 -15.011,20.636 l 0,0 c -5.223,3.442 -5.803,15.253 -4.862,22.24 l 0,0 c 1.203,8.944 5.802,15.537 8.089,18.342 l 0,0 c -3.759,1.567 -7.915,2.444 -12.292,2.444 l 0,0 c -4.114,0 -8.039,-0.773 -11.618,-2.168"/>
          </g>
        </g>
      </g>
    </g>
    <g id="g4932" transform="matrix(4.538967, 0, 0, -4.538967, -1004.754272, 671.017578)" style="">
      <g clip-path="url(#clipPath4936)" id="g4934">
        <g transform="translate(268.1689,94.2891)" id="g4940">
          <path id="path4942" style="fill:#aaacae;fill-opacity:1;fill-rule:nonzero;stroke:none" d="m 0,0 c 0,-2.184 -2.107,-3.956 -4.708,-3.956 -2.603,0 -4.711,1.772 -4.711,3.956 0,2.185 2.108,3.954 4.711,3.954 C -2.107,3.954 0,2.185 0,0"/>
        </g>
      </g>
    </g>
    <g id="g4944" transform="matrix(4.538967, 0, 0, -4.538967, -1004.754272, 671.017578)" style="">
      <g id="g4946">
        <g id="g4952">
          <g id="g4954">
            <path id="path4968" style="fill:url(#radialGradient4956);stroke:none" d="m 258.098,94.858 c 0,-2.184 2.106,-3.956 4.708,-3.956 l 0,0 c 2.6,0 4.709,1.772 4.709,3.956 l 0,0 c 0,2.183 -2.109,3.955 -4.709,3.955 l 0,0 c -2.602,0 -4.708,-1.772 -4.708,-3.955"/>
          </g>
        </g>
      </g>
    </g>
    <g id="g4970" transform="matrix(4.538967, 0, 0, -4.538967, -1004.754272, 671.017578)" style="">
      <g clip-path="url(#clipPath4974)" id="g4972">
        <g transform="translate(276.9902,107.6143)" id="g4978">
          <path id="path4980" style="fill:#ffffff;fill-opacity:1;fill-rule:nonzero;stroke:none" d="m 0,0 c 0,-1.938 -1.572,-3.51 -3.513,-3.51 -1.936,0 -3.508,1.572 -3.508,3.51 0,1.939 1.572,3.511 3.508,3.511 C -1.572,3.511 0,1.939 0,0"/>
        </g>
        <g transform="translate(276.2617,141.0469)" id="g4982">
          <path id="path4984" style="fill:#6f3429;fill-opacity:1;fill-rule:nonzero;stroke:none" d="m 0,0 c 1.405,2.178 6.047,3.87 11.399,-2.511 4.136,-4.931 6.368,-7.387 11.972,-10.479 6.278,-3.465 7.224,-13.246 1.2,-17.046 -4.053,-2.562 -13.956,-3.192 -18.003,7.041 -2.034,5.151 -2.063,8.491 -5.357,12.888 C -2.267,-5.469 -2.126,-3.283 0,0"/>
        </g>
        <g transform="translate(249.1367,141.0469)" id="g4986">
          <path id="path4988" style="fill:#6f3429;fill-opacity:1;fill-rule:nonzero;stroke:none" d="m 0,0 c -1.407,2.178 -6.047,3.87 -11.4,-2.511 -4.135,-4.931 -5.307,-8.677 -10.821,-12.946 -5.673,-4.391 -5.445,-8.389 -2.185,-12.256 3.384,-4.011 13.79,-5.515 17.838,4.718 2.034,5.151 1.148,7.972 4.442,12.368 C 1.355,-5.989 2.126,-3.283 0,0"/>
        </g>
        <g transform="translate(282.3755,81.21)" id="g4990">
          <path id="path4992" style="fill:#aaacae;fill-opacity:1;fill-rule:nonzero;stroke:none" d="m 0,0 c 0,-0.369 -0.299,-0.668 -0.669,-0.668 -0.368,0 -0.667,0.299 -0.667,0.668 0,0.369 0.299,0.67 0.667,0.67 C -0.299,0.67 0,0.369 0,0"/>
        </g>
        <g transform="translate(280.3433,72.2109)" id="g4994">
          <path id="path4996" style="fill:#aaacae;fill-opacity:1;fill-rule:nonzero;stroke:none" d="m 0,0 c 0,-0.409 -0.33,-0.737 -0.738,-0.737 -0.407,0 -0.737,0.328 -0.737,0.737 0,0.407 0.33,0.736 0.737,0.736 C -0.33,0.736 0,0.407 0,0"/>
        </g>
        <g transform="translate(276.3784,78.6914)" id="g4998">
          <path id="path5000" style="fill:#aaacae;fill-opacity:1;fill-rule:nonzero;stroke:none" d="m 0,0 c 0,-0.369 -0.299,-0.667 -0.667,-0.667 -0.368,0 -0.669,0.298 -0.669,0.667 0,0.37 0.301,0.668 0.669,0.668 C -0.299,0.668 0,0.37 0,0"/>
        </g>
        <g transform="translate(247.0605,76.3545)" id="g5002">
          <path id="path5004" style="fill:#aaacae;fill-opacity:1;fill-rule:nonzero;stroke:none" d="m 0,0 c 0,-0.371 -0.299,-0.668 -0.669,-0.668 -0.37,0 -0.667,0.297 -0.667,0.668 0,0.367 0.297,0.668 0.667,0.668 C -0.299,0.668 0,0.367 0,0"/>
        </g>
        <g transform="translate(245.9194,83.8486)" id="g5006">
          <path id="path5008" style="fill:#aaacae;fill-opacity:1;fill-rule:nonzero;stroke:none" d="m 0,0 c 0,-0.37 -0.297,-0.667 -0.667,-0.667 -0.37,0 -0.669,0.297 -0.669,0.667 0,0.37 0.299,0.668 0.669,0.668 C -0.297,0.668 0,0.37 0,0"/>
        </g>
        <g transform="translate(252.3364,81.2695)" id="g5010">
          <path id="path5012" style="fill:#aaacae;fill-opacity:1;fill-rule:nonzero;stroke:none" d="m 0,0 c 0,-0.369 -0.301,-0.667 -0.669,-0.667 -0.368,0 -0.669,0.298 -0.669,0.667 0,0.37 0.301,0.67 0.669,0.67 C -0.301,0.67 0,0.37 0,0"/>
        </g>
      </g>
    </g>
    <g id="g5014" transform="matrix(4.538967, 0, 0, -4.538967, -1004.754272, 671.017578)" style="">
      <g id="g5016">
        <g id="g5022">
          <g id="g5024">
            <path id="path5034" style="fill:url(#radialGradient5026);stroke:none" d="m 270.485,106.71 c 0,-0.9 0.728,-1.631 1.628,-1.631 l 0,0 c 0.898,0 1.631,0.731 1.631,1.631 l 0,0 c 0,0.899 -0.733,1.629 -1.631,1.629 l 0,0 c -0.9,0 -1.628,-0.73 -1.628,-1.629"/>
          </g>
        </g>
      </g>
    </g>
    <g id="g5036" transform="matrix(4.538967, 0, 0, -4.538967, -1004.754272, 671.017578)" style="">
      <g id="g5038">
        <g id="g5044">
          <g id="g5046">
            <path id="path5056" style="fill:url(#radialGradient5048);stroke:none" d="m 251.85,106.71 c 0,-0.9 0.731,-1.631 1.629,-1.631 l 0,0 c 0.9,0 1.631,0.731 1.631,1.631 l 0,0 c 0,0.899 -0.731,1.629 -1.631,1.629 l 0,0 c -0.898,0 -1.629,-0.73 -1.629,-1.629"/>
          </g>
        </g>
      </g>
    </g>
  </g>
</svg>