<?xml version="1.0" encoding="utf-8"?>
<svg viewBox="0 0 500 500" xmlns="http://www.w3.org/2000/svg">
  <defs>
    <radialGradient id="radialGradient4238" spreadMethod="pad" gradientTransform="matrix(29.324478,0,0,-29.324478,598.88281,347.36133)" gradientUnits="userSpaceOnUse" r="1" cy="0" cx="0">
      <stop id="stop4240" offset="0" style="stop-opacity:1;stop-color:#737577"/>
      <stop id="stop4242" offset="0.646" style="stop-opacity:1;stop-color:#737577"/>
      <stop id="stop4244" offset="0.8876" style="stop-opacity:1;stop-color:#858789"/>
      <stop id="stop4246" offset="1" style="stop-opacity:1;stop-color:#96989b"/>
    </radialGradient>
    <radialGradient id="radialGradient4262" spreadMethod="pad" gradientTransform="matrix(5.032547,15.947266,15.947266,-5.032547,542.63086,409.229)" gradientUnits="userSpaceOnUse" r="1" cy="0" cx="0">
      <stop id="stop4264" offset="0" style="stop-opacity:1;stop-color:#d2d4d5"/>
      <stop id="stop4266" offset="0.2472" style="stop-opacity:1;stop-color:#d2d4d5"/>
      <stop id="stop4268" offset="1" style="stop-opacity:1;stop-color:#858789"/>
    </radialGradient>
    <radialGradient id="radialGradient4284" spreadMethod="pad" gradientTransform="matrix(6.0633392,2.499115,2.499115,-6.0633392,572.10742,414.00732)" gradientUnits="userSpaceOnUse" r="1" cy="0" cx="0">
      <stop id="stop4286" offset="0" style="stop-opacity:1;stop-color:#d2d4d5"/>
      <stop id="stop4288" offset="0.2472" style="stop-opacity:1;stop-color:#d2d4d5"/>
      <stop id="stop4290" offset="1" style="stop-opacity:1;stop-color:#858789"/>
    </radialGradient>
    <radialGradient id="radialGradient4306" spreadMethod="pad" gradientTransform="matrix(2.7633972,-10.16806,-10.16806,-2.7633972,577.25195,409.45117)" gradientUnits="userSpaceOnUse" r="1" cy="0" cx="0">
      <stop id="stop4308" offset="0" style="stop-opacity:1;stop-color:#96989b"/>
      <stop id="stop4310" offset="0.7627" style="stop-opacity:1;stop-color:#96989b"/>
      <stop id="stop4312" offset="1" style="stop-opacity:1;stop-color:#606163"/>
    </radialGradient>
    <radialGradient id="radialGradient4328" spreadMethod="pad" gradientTransform="matrix(64.247818,0,0,-64.247803,546.37109,401.07715)" gradientUnits="userSpaceOnUse" r="1" cy="0" cx="0">
      <stop id="stop4330" offset="0" style="stop-opacity:1;stop-color:#aaacae"/>
      <stop id="stop4332" offset="0.646" style="stop-opacity:1;stop-color:#aaacae"/>
      <stop id="stop4334" offset="0.8876" style="stop-opacity:1;stop-color:#858789"/>
      <stop id="stop4336" offset="1" style="stop-opacity:1;stop-color:#96989b"/>
    </radialGradient>
    <clipPath id="clipPath4344" clipPathUnits="userSpaceOnUse">
      <path id="path4346" d="m 0,595.276 841.89,0 L 841.89,0 0,0 0,595.276 Z"/>
    </clipPath>
    <radialGradient id="radialGradient4368" spreadMethod="pad" gradientTransform="matrix(1.3448334,-0.167572,-0.4328918,-3.4737854,551.20117,395.25391)" gradientUnits="userSpaceOnUse" r="1" cy="0" cx="0">
      <stop id="stop4370" offset="0" style="stop-opacity:1;stop-color:#ffffff"/>
      <stop id="stop4372" offset="0.3219" style="stop-opacity:1;stop-color:#373535"/>
      <stop id="stop4374" offset="1" style="stop-opacity:1;stop-color:#373535"/>
    </radialGradient>
    <radialGradient id="radialGradient4390" spreadMethod="pad" gradientTransform="matrix(1.3464966,-0.1677856,-0.4334259,-3.4781036,542.66113,395.91016)" gradientUnits="userSpaceOnUse" r="1" cy="0" cx="0">
      <stop id="stop4392" offset="0" style="stop-opacity:1;stop-color:#ffffff"/>
      <stop id="stop4394" offset="0.3219" style="stop-opacity:1;stop-color:#373535"/>
      <stop id="stop4396" offset="1" style="stop-opacity:1;stop-color:#373535"/>
    </radialGradient>
    <clipPath id="clipPath4404" clipPathUnits="userSpaceOnUse">
      <path id="path4406" d="m 0,595.276 841.89,0 L 841.89,0 0,0 0,595.276 Z"/>
    </clipPath>
    <radialGradient id="radialGradient4424" spreadMethod="pad" gradientTransform="matrix(58.569534,0,0,-58.569534,586.37793,364.02148)" gradientUnits="userSpaceOnUse" r="1" cy="0" cx="0">
      <stop id="stop4426" offset="0" style="stop-opacity:1;stop-color:#e7e8e9"/>
      <stop id="stop4428" offset="0.0574" style="stop-opacity:1;stop-color:#aaacae"/>
      <stop id="stop4430" offset="0.1517" style="stop-opacity:1;stop-color:#aaacae"/>
      <stop id="stop4432" offset="0.6873" style="stop-opacity:1;stop-color:#aaacae"/>
      <stop id="stop4434" offset="0.8876" style="stop-opacity:1;stop-color:#858789"/>
      <stop id="stop4436" offset="1" style="stop-opacity:1;stop-color:#96989b"/>
    </radialGradient>
    <clipPath id="clipPath4444" clipPathUnits="userSpaceOnUse">
      <path id="path4446" d="m 0,595.276 841.89,0 L 841.89,0 0,0 0,595.276 Z"/>
    </clipPath>
    <radialGradient id="radialGradient4468" spreadMethod="pad" gradientTransform="matrix(2.2761993,7.526535,7.526535,-2.2761993,603.83887,314.79004)" gradientUnits="userSpaceOnUse" r="1" cy="0" cx="0">
      <stop id="stop4470" offset="0" style="stop-opacity:1;stop-color:#ffffff"/>
      <stop id="stop4472" offset="0.0634" style="stop-opacity:1;stop-color:#ffffff"/>
      <stop id="stop4474" offset="1" style="stop-opacity:1;stop-color:#bec0c2"/>
    </radialGradient>
    <radialGradient id="radialGradient4490" spreadMethod="pad" gradientTransform="matrix(2.2763367,7.5269928,7.5269928,-2.2763367,591.45703,315.6001)" gradientUnits="userSpaceOnUse" r="1" cy="0" cx="0">
      <stop id="stop4492" offset="0" style="stop-opacity:1;stop-color:#ffffff"/>
      <stop id="stop4494" offset="0.0634" style="stop-opacity:1;stop-color:#ffffff"/>
      <stop id="stop4496" offset="1" style="stop-opacity:1;stop-color:#bec0c2"/>
    </radialGradient>
    <radialGradient id="radialGradient4512" spreadMethod="pad" gradientTransform="matrix(2.2747498,7.5217438,7.5217438,-2.2747498,561.45508,314.79395)" gradientUnits="userSpaceOnUse" r="1" cy="0" cx="0">
      <stop id="stop4514" offset="0" style="stop-opacity:1;stop-color:#ffffff"/>
      <stop id="stop4516" offset="0.0634" style="stop-opacity:1;stop-color:#ffffff"/>
      <stop id="stop4518" offset="1" style="stop-opacity:1;stop-color:#bec0c2"/>
    </radialGradient>
    <radialGradient id="radialGradient4534" spreadMethod="pad" gradientTransform="matrix(24.266434,0,0,-24.266418,592.19336,383.84863)" gradientUnits="userSpaceOnUse" r="1" cy="0" cx="0">
      <stop id="stop4536" offset="0" style="stop-opacity:1;stop-color:#aaacae"/>
      <stop id="stop4538" offset="0.646" style="stop-opacity:1;stop-color:#aaacae"/>
      <stop id="stop4540" offset="0.8876" style="stop-opacity:1;stop-color:#858789"/>
      <stop id="stop4542" offset="1" style="stop-opacity:1;stop-color:#96989b"/>
    </radialGradient>
    <clipPath id="clipPath4550" clipPathUnits="userSpaceOnUse">
      <path id="path4552" d="m 0,595.276 841.89,0 L 841.89,0 0,0 0,595.276 Z"/>
    </clipPath>
  </defs>
  <g transform="matrix(1, 0, 0, 1, 11.91481, 38.879147)">
    <g id="g4226" transform="matrix(4.129579, 0, 0, -4.129579, -2136.530518, 1735.241211)" style="">
      <g id="g4228">
        <g id="g4234">
          <g id="g4236">
            <path id="path4248" style="fill:url(#radialGradient4238);stroke:none" d="m 592.384,326.496 c 0,0 -0.723,-3.003 -0.082,-6.226 l 0,0 c 0,0 13.357,-0.407 16.011,0.919 l 0,0 c 2.655,1.327 -0.44,8.406 -0.44,8.406 l 0,0 -8.409,1.989 -7.08,-5.088 z"/>
          </g>
        </g>
      </g>
    </g>
    <g id="g4250" transform="matrix(4.129579, 0, 0, -4.129579, -2136.530518, 1735.241211)" style="">
      <g id="g4252">
        <g id="g4258">
          <g id="g4260">
            <path id="path4270" style="fill:url(#radialGradient4262);stroke:none" d="m 556.919,405.566 c 1.463,1.338 2.03,2.026 2.03,2.026 l 0,0 c 0,0 1.987,8.947 -7.789,12.565 l 0,0 c -3.34,-9.104 2.548,-13.389 5.759,-14.591"/>
          </g>
        </g>
      </g>
    </g>
    <g id="g4272" transform="matrix(4.129579, 0, 0, -4.129579, -2136.530518, 1735.241211)" style="">
      <g id="g4274">
        <g id="g4280">
          <g id="g4282">
            <path id="path4292" style="fill:url(#radialGradient4284);stroke:none" d="m 566.22,407.943 c 4.062,-2.065 2.858,-0.255 2.858,-0.255 l 0,0 c 0,0 6.063,0.511 9.341,11.855 l 0,0 c -0.508,0.032 -0.998,0.047 -1.469,0.047 l 0,0 c -9.834,0 -11.9,-6.638 -10.73,-11.647"/>
          </g>
        </g>
      </g>
    </g>
    <g id="g4294" transform="matrix(4.129579, 0, 0, -4.129579, -2136.530518, 1735.241211)" style="">
      <g id="g4296">
        <g id="g4302">
          <g id="g4304">
            <path id="path4314" style="fill:url(#radialGradient4306);stroke:none" d="m 572.547,417.725 c -4.18,-2.481 -5.219,-6.522 -4.711,-9.652 l 0,0 c 0.158,-0.972 -0.016,-0.962 2.058,-1.329 l 0,0 c 1.427,0.009 1.126,-0.49 1.126,-0.49 l 0,0 c 0,0 7.756,1.49 7.403,13.249 l 0,0 c -1.593,-0.283 -4.458,-0.938 -5.876,-1.778"/>
          </g>
        </g>
      </g>
    </g>
    <g id="g4316" transform="matrix(4.129579, 0, 0, -4.129579, -2136.530518, 1735.241211)" style="">
      <g id="g4318">
        <g id="g4324">
          <g id="g4326">
            <path id="path4338" style="fill:url(#radialGradient4328);stroke:none" d="m 532.63,380.633 c -5.359,-4.171 -8.807,-10.677 -8.807,-17.993 l 0,0 c 0,-12.594 10.367,-20.797 22.801,-22.801 l 0,0 c 33.716,-5.439 52.061,19.831 52.061,37.626 l 0,0 c 0,17.797 -12.042,33.345 -34.126,33.345 l 0,0 c -21.409,0 -30.45,-13.749 -31.929,-30.177"/>
          </g>
        </g>
      </g>
    </g>
    <g id="g4340" transform="matrix(4.129579, 0, 0, -4.129579, -2136.530518, 1735.241211)" style="">
      <g clip-path="url(#clipPath4344)" id="g4342">
        <g transform="translate(529.7041,355.8086)" id="g4348">
          <path id="path4350" style="fill:#ffffff;fill-opacity:1;fill-rule:nonzero;stroke:none" d="M 0,0 C 0,0 -0.098,4.892 0.378,5.373 0.85,5.855 4.962,6.263 5.449,5.524 5.933,4.784 6.206,0.604 6.206,0.604 L 0,0 Z"/>
        </g>
        <g transform="translate(553.3145,356.4893)" id="g4352">
          <path id="path4354" style="fill:#ffffff;fill-opacity:1;fill-rule:nonzero;stroke:none" d="M 0,0 C 0,0 0.624,5.105 1.329,5.309 2.038,5.51 5.631,5.553 6.149,4.639 6.671,3.724 6.688,-1.14 6.688,-1.14 L 0,0 Z"/>
        </g>
      </g>
    </g>
    <g id="g4356" transform="matrix(4.129579, 0, 0, -4.129579, -2136.530518, 1735.241211)" style="">
      <g id="g4358">
        <g id="g4364">
          <g id="g4366">
            <path id="path4376" style="fill:url(#radialGradient4368);stroke:none" d="m 550.556,393.971 c -0.205,-1.615 0.142,-2.991 0.765,-3.07 l 0,0 c 0.627,-0.079 1.302,1.172 1.499,2.788 l 0,0 c 0.203,1.62 -0.144,2.995 -0.768,3.073 l 0,0 c -0.019,0.003 -0.037,0.004 -0.056,0.004 l 0,0 c -0.611,0 -1.248,-1.225 -1.44,-2.795"/>
          </g>
        </g>
      </g>
    </g>
    <g id="g4378" transform="matrix(4.129579, 0, 0, -4.129579, -2136.530518, 1735.241211)" style="">
      <g id="g4380">
        <g id="g4386">
          <g id="g4388">
            <path id="path4398" style="fill:url(#radialGradient4390);stroke:none" d="m 542.014,394.628 c -0.201,-1.618 0.148,-2.994 0.769,-3.071 l 0,0 c 0.627,-0.078 1.301,1.172 1.502,2.789 l 0,0 c 0.2,1.618 -0.144,2.994 -0.77,3.072 l 0,0 c -0.018,0.003 -0.037,0.004 -0.056,0.004 l 0,0 c -0.61,0 -1.248,-1.224 -1.445,-2.794"/>
          </g>
        </g>
      </g>
    </g>
    <g id="g4400" transform="matrix(4.129579, 0, 0, -4.129579, -2136.530518, 1735.241211)" style="">
      <g clip-path="url(#clipPath4404)" id="g4402">
        <g transform="translate(525.0801,355.4165)" id="g4408">
          <path id="path4410" style="fill:#606163;fill-opacity:1;fill-rule:nonzero;stroke:none" d="m 0,0 c 0.052,-0.133 0.098,-0.27 0.147,-0.401 6.881,0.918 28.955,3.288 43.374,-1.807 l 0.14,0.395 C 29.102,3.332 6.815,0.915 0,0"/>
        </g>
      </g>
    </g>
    <g id="g4412" transform="matrix(4.129579, 0, 0, -4.129579, -2136.530518, 1735.241211)" style="">
      <g id="g4414">
        <g id="g4420">
          <g id="g4422">
            <path id="path4438" style="fill:url(#radialGradient4424);stroke:none" d="m 577.11,368.679 c -20.313,-12.884 -16.921,-49.248 -16.921,-49.248 l 0,0 c 12.787,-3.03 23.385,-0.337 23.385,-0.337 l 0,0 -0.022,6.73 c 9.616,-3.871 20.812,0.243 20.812,0.243 l 0,0 -0.431,-6.806 c 7.909,-1.849 22.211,0.843 22.211,0.843 l 0,0 c 0,0 1.679,31.949 -9.872,44.59 l 0,0 c -6.258,6.848 -13.75,8.978 -20.553,8.977 l 0,0 c -8.615,0 -16.123,-3.416 -18.609,-4.992"/>
          </g>
        </g>
      </g>
    </g>
    <g id="g4440" transform="matrix(4.129579, 0, 0, -4.129579, -2136.530518, 1735.241211)" style="">
      <g clip-path="url(#clipPath4444)" id="g4442">
        <g transform="translate(545.9453,379.0625)" id="g4448">
          <path id="path4450" style="fill:#737577;fill-opacity:1;fill-rule:nonzero;stroke:none" d="m 0,0 c 0,-0.444 -0.358,-0.802 -0.806,-0.802 -0.44,0 -0.802,0.358 -0.802,0.802 0,0.444 0.362,0.804 0.802,0.804 C -0.358,0.804 0,0.444 0,0"/>
        </g>
        <g transform="translate(540.7266,379.8667)" id="g4452">
          <path id="path4454" style="fill:#737577;fill-opacity:1;fill-rule:nonzero;stroke:none" d="m 0,0 c 0,-0.444 -0.36,-0.804 -0.806,-0.804 -0.442,0 -0.8,0.36 -0.8,0.804 0,0.442 0.358,0.802 0.8,0.802 C -0.36,0.802 0,0.442 0,0"/>
        </g>
      </g>
    </g>
    <g id="g4456" transform="matrix(4.129579, 0, 0, -4.129579, -2136.530518, 1735.241211)" style="">
      <g id="g4458">
        <g id="g4464">
          <g id="g4466">
            <path id="path4476" style="fill:url(#radialGradient4468);stroke:none" d="m 603.933,319.261 c 0.892,-0.208 1.866,-0.355 2.889,-0.459 l 0,0 c -0.187,1.62 -1.174,3.055 -2.679,3.731 l 0,0 -0.21,-3.272 z"/>
          </g>
        </g>
      </g>
    </g>
    <g id="g4478" transform="matrix(4.129579, 0, 0, -4.129579, -2136.530518, 1735.241211)" style="">
      <g id="g4480">
        <g id="g4486">
          <g id="g4488">
            <path id="path4498" style="fill:url(#radialGradient4490);stroke:none" d="m 592.302,320.27 c 0,0 0.795,-0.023 2.026,-0.041 l 0,0 c -0.316,1.26 -1.129,2.343 -2.289,2.965 l 0,0 c -0.005,-0.891 0.059,-1.894 0.263,-2.924"/>
          </g>
        </g>
      </g>
    </g>
    <g id="g4500" transform="matrix(4.129579, 0, 0, -4.129579, -2136.530518, 1735.241211)" style="">
      <g id="g4502">
        <g id="g4508">
          <g id="g4510">
            <path id="path4520" style="fill:url(#radialGradient4512);stroke:none" d="m 560.189,319.431 c 1.457,-0.348 2.882,-0.614 4.273,-0.822 l 0,0 c -0.143,1.886 -1.365,3.567 -3.24,4.133 l 0,0 c -0.402,0.122 -0.814,0.18 -1.218,0.186 l 0,0 c 0.06,-2.192 0.185,-3.497 0.185,-3.497"/>
          </g>
        </g>
      </g>
    </g>
    <g id="g4522" transform="matrix(4.129579, 0, 0, -4.129579, -2136.530518, 1735.241211)" style="">
      <g id="g4524">
        <g id="g4530">
          <g id="g4532">
            <path id="path4544" style="fill:url(#radialGradient4534);stroke:none" d="m 603.985,367.402 c 0,0 0.165,-0.591 0.711,-0.925 l 0,0 c 0.548,-0.338 1.093,-0.338 1.093,-0.338 l 0,0 c 13.626,6.059 5.717,17.398 5.717,17.398 l 0,0 c 1.681,-6.73 -7.521,-16.135 -7.521,-16.135"/>
          </g>
        </g>
      </g>
    </g>
    <g id="g4546" transform="matrix(4.129579, 0, 0, -4.129579, -2136.530518, 1735.241211)" style="">
      <g clip-path="url(#clipPath4550)" id="g4548">
        <g transform="translate(552.418,404.918)" id="g4554">
          <path id="path4556" style="fill:none;stroke:#373535;stroke-width:2;stroke-linecap:round;stroke-linejoin:round;stroke-miterlimit:4;stroke-dasharray:none;stroke-opacity:1" d="M 0,0 C 0,0 1.931,-5.439 7.735,-5.131"/>
        </g>
        <g transform="translate(544.9365,405.2007)" id="g4558">
          <path id="path4560" style="fill:none;stroke:#373535;stroke-width:2;stroke-linecap:round;stroke-linejoin:round;stroke-miterlimit:4;stroke-dasharray:none;stroke-opacity:1" d="M 0,0 C 0,0 -1.033,-4.63 -5.802,-4.957"/>
        </g>
      </g>
    </g>
  </g>
</svg>