<?xml version="1.0" encoding="utf-8"?>
<svg viewBox="0 0 500 500" xmlns="http://www.w3.org/2000/svg">
  <defs>
    <radialGradient id="radialGradient5784" spreadMethod="pad" gradientTransform="matrix(28.608383,-2.4863129,-2.4863129,-28.608383,768.35937,126.18359)" gradientUnits="userSpaceOnUse" r="1" cy="0" cx="0">
      <stop id="stop5786" offset="0" style="stop-opacity:1;stop-color:#9c8a85"/>
      <stop id="stop5788" offset="0.6536" style="stop-opacity:1;stop-color:#9c8a85"/>
      <stop id="stop5790" offset="1" style="stop-opacity:1;stop-color:#736765"/>
    </radialGradient>
    <radialGradient id="radialGradient5806" spreadMethod="pad" gradientTransform="matrix(3.2169495,0,0,-3.2169495,741.68945,53.021484)" gradientUnits="userSpaceOnUse" r="1" cy="0" cx="0">
      <stop id="stop5808" offset="0" style="stop-opacity:1;stop-color:#9c8a85"/>
      <stop id="stop5810" offset="0.6536" style="stop-opacity:1;stop-color:#9c8a85"/>
      <stop id="stop5812" offset="1" style="stop-opacity:1;stop-color:#736765"/>
    </radialGradient>
    <radialGradient id="radialGradient5828" spreadMethod="pad" gradientTransform="matrix(4.8583832,0,0,-4.8583832,742.60059,51.962891)" gradientUnits="userSpaceOnUse" r="1" cy="0" cx="0">
      <stop id="stop5830" offset="0" style="stop-opacity:1;stop-color:#9c8a85"/>
      <stop id="stop5832" offset="0.6536" style="stop-opacity:1;stop-color:#9c8a85"/>
      <stop id="stop5834" offset="1" style="stop-opacity:1;stop-color:#736765"/>
    </radialGradient>
    <radialGradient id="radialGradient5850" spreadMethod="pad" gradientTransform="matrix(24.38089,0,0,-24.38089,727.69141,66.203125)" gradientUnits="userSpaceOnUse" r="1" cy="0" cx="0">
      <stop id="stop5852" offset="0" style="stop-opacity:1;stop-color:#9c8a85"/>
      <stop id="stop5854" offset="0.6536" style="stop-opacity:1;stop-color:#9c8a85"/>
      <stop id="stop5856" offset="1" style="stop-opacity:1;stop-color:#736765"/>
    </radialGradient>
    <radialGradient id="radialGradient5872" spreadMethod="pad" gradientTransform="matrix(-3.2169495,0,0,-3.2169495,694.58398,53.021484)" gradientUnits="userSpaceOnUse" r="1" cy="0" cx="0">
      <stop id="stop5874" offset="0" style="stop-opacity:1;stop-color:#9c8a85"/>
      <stop id="stop5876" offset="0.6536" style="stop-opacity:1;stop-color:#9c8a85"/>
      <stop id="stop5878" offset="1" style="stop-opacity:1;stop-color:#736765"/>
    </radialGradient>
    <radialGradient id="radialGradient5894" spreadMethod="pad" gradientTransform="matrix(-4.8583374,0,0,-4.8583374,693.67383,51.962891)" gradientUnits="userSpaceOnUse" r="1" cy="0" cx="0">
      <stop id="stop5896" offset="0" style="stop-opacity:1;stop-color:#9c8a85"/>
      <stop id="stop5898" offset="0.6536" style="stop-opacity:1;stop-color:#9c8a85"/>
      <stop id="stop5900" offset="1" style="stop-opacity:1;stop-color:#736765"/>
    </radialGradient>
    <radialGradient id="radialGradient5916" spreadMethod="pad" gradientTransform="matrix(-24.381775,0,0,-24.381775,708.58398,66.203125)" gradientUnits="userSpaceOnUse" r="1" cy="0" cx="0">
      <stop id="stop5918" offset="0" style="stop-opacity:1;stop-color:#9c8a85"/>
      <stop id="stop5920" offset="0.6536" style="stop-opacity:1;stop-color:#9c8a85"/>
      <stop id="stop5922" offset="1" style="stop-opacity:1;stop-color:#736765"/>
    </radialGradient>
    <radialGradient id="radialGradient5938" spreadMethod="pad" gradientTransform="matrix(14.434372,0,0,-14.434372,748.88965,82.825195)" gradientUnits="userSpaceOnUse" r="1" cy="0" cx="0">
      <stop id="stop5940" offset="0" style="stop-opacity:1;stop-color:#9c8a85"/>
      <stop id="stop5942" offset="0.6536" style="stop-opacity:1;stop-color:#9c8a85"/>
      <stop id="stop5944" offset="1" style="stop-opacity:1;stop-color:#736765"/>
    </radialGradient>
    <radialGradient id="radialGradient5960" spreadMethod="pad" gradientTransform="matrix(19.926758,0,0,-19.926758,684.49805,83.695312)" gradientUnits="userSpaceOnUse" r="1" cy="0" cx="0">
      <stop id="stop5962" offset="0" style="stop-opacity:1;stop-color:#9c8a85"/>
      <stop id="stop5964" offset="0.6536" style="stop-opacity:1;stop-color:#9c8a85"/>
      <stop id="stop5966" offset="1" style="stop-opacity:1;stop-color:#736765"/>
    </radialGradient>
    <radialGradient id="radialGradient5982" spreadMethod="pad" gradientTransform="matrix(36.042007,0,0,-36.042007,716.51465,88.882812)" gradientUnits="userSpaceOnUse" r="1" cy="0" cx="0">
      <stop id="stop5984" offset="0" style="stop-opacity:1;stop-color:#9c8a85"/>
      <stop id="stop5986" offset="0.6536" style="stop-opacity:1;stop-color:#9c8a85"/>
      <stop id="stop5988" offset="1" style="stop-opacity:1;stop-color:#736765"/>
    </radialGradient>
    <clipPath id="clipPath5996" clipPathUnits="userSpaceOnUse">
      <path id="path5998" d="m 0,595.276 841.89,0 L 841.89,0 0,0 0,595.276 Z"/>
    </clipPath>
    <radialGradient id="radialGradient6016" spreadMethod="pad" gradientTransform="matrix(31.6259,0,0,-26.981186,717.73047,86.119141)" gradientUnits="userSpaceOnUse" r="1" cy="0" cx="0">
      <stop id="stop6018" offset="0" style="stop-opacity:1;stop-color:#ffffff"/>
      <stop id="stop6020" offset="0.3056" style="stop-opacity:1;stop-color:#ffffff"/>
      <stop id="stop6022" offset="1" style="stop-opacity:1;stop-color:#bec0c2"/>
    </radialGradient>
    <clipPath id="clipPath6030" clipPathUnits="userSpaceOnUse">
      <path id="path6032" d="m 0,595.276 841.89,0 L 841.89,0 0,0 0,595.276 Z"/>
    </clipPath>
    <radialGradient id="radialGradient6050" spreadMethod="pad" gradientTransform="matrix(5.7928162,0,0,-5.7928162,718.90234,83.326172)" gradientUnits="userSpaceOnUse" r="1" cy="0" cx="0">
      <stop id="stop6052" offset="0" style="stop-opacity:1;stop-color:#9c8a85"/>
      <stop id="stop6054" offset="0.6536" style="stop-opacity:1;stop-color:#9c8a85"/>
      <stop id="stop6056" offset="1" style="stop-opacity:1;stop-color:#736765"/>
    </radialGradient>
    <linearGradient id="linearGradient6072" spreadMethod="pad" gradientTransform="matrix(0.9537506,2.1817169,2.1817169,-0.9537506,720.06055,85.207031)" gradientUnits="userSpaceOnUse" y2="0" x2="1" y1="0" x1="0">
      <stop id="stop6074" offset="0" style="stop-opacity:1;stop-color:#f7afbe"/>
      <stop id="stop6076" offset="1" style="stop-opacity:1;stop-color:#f4898c"/>
    </linearGradient>
    <radialGradient id="radialGradient6092" spreadMethod="pad" gradientTransform="matrix(16.795547,-19.041794,-17.812012,-17.954208,768.59961,128.90039)" gradientUnits="userSpaceOnUse" r="1" cy="0" cx="0">
      <stop id="stop6094" offset="0" style="stop-opacity:1;stop-color:#e7e8e9"/>
      <stop id="stop6096" offset="0.5466" style="stop-opacity:1;stop-color:#e7e8e9"/>
      <stop id="stop6098" offset="1" style="stop-opacity:1;stop-color:#9d8a79"/>
    </radialGradient>
    <radialGradient id="radialGradient6114" spreadMethod="pad" gradientTransform="matrix(16.793106,-19.042007,-17.809586,-17.954422,768.49805,127.61328)" gradientUnits="userSpaceOnUse" r="1" cy="0" cx="0">
      <stop id="stop6116" offset="0" style="stop-opacity:1;stop-color:#ffffff"/>
      <stop id="stop6118" offset="0.5466" style="stop-opacity:1;stop-color:#ffffff"/>
      <stop id="stop6120" offset="1" style="stop-opacity:1;stop-color:#9d8a79"/>
    </radialGradient>
    <radialGradient id="radialGradient6136" spreadMethod="pad" gradientTransform="matrix(-24.12088,15.57283,-15.57283,-24.12088,701.90332,148.05664)" gradientUnits="userSpaceOnUse" r="1" cy="0" cx="0">
      <stop id="stop6138" offset="0" style="stop-opacity:1;stop-color:#9c8a85"/>
      <stop id="stop6140" offset="0.6536" style="stop-opacity:1;stop-color:#9c8a85"/>
      <stop id="stop6142" offset="1" style="stop-opacity:1;stop-color:#736765"/>
    </radialGradient>
    <radialGradient id="radialGradient6158" spreadMethod="pad" gradientTransform="matrix(-24.94397,-4.7454681,3.0626984,-25.104614,702.26367,150.46973)" gradientUnits="userSpaceOnUse" r="1" cy="0" cx="0">
      <stop id="stop6160" offset="0" style="stop-opacity:1;stop-color:#e7e8e9"/>
      <stop id="stop6162" offset="0.5466" style="stop-opacity:1;stop-color:#e7e8e9"/>
      <stop id="stop6164" offset="1" style="stop-opacity:1;stop-color:#9d8a79"/>
    </radialGradient>
    <radialGradient id="radialGradient6180" spreadMethod="pad" gradientTransform="matrix(-24.944153,-4.7454987,3.0627136,-25.104797,701.56445,149.38477)" gradientUnits="userSpaceOnUse" r="1" cy="0" cx="0">
      <stop id="stop6182" offset="0" style="stop-opacity:1;stop-color:#ffffff"/>
      <stop id="stop6184" offset="0.5466" style="stop-opacity:1;stop-color:#ffffff"/>
      <stop id="stop6186" offset="1" style="stop-opacity:1;stop-color:#9d8a79"/>
    </radialGradient>
    <radialGradient id="radialGradient6202" spreadMethod="pad" gradientTransform="matrix(59.240601,0,0,-59.240585,719.60352,143.45801)" gradientUnits="userSpaceOnUse" r="1" cy="0" cx="0">
      <stop id="stop6204" offset="0" style="stop-opacity:1;stop-color:#9c8a85"/>
      <stop id="stop6206" offset="0.6536" style="stop-opacity:1;stop-color:#9c8a85"/>
      <stop id="stop6208" offset="1" style="stop-opacity:1;stop-color:#736765"/>
    </radialGradient>
    <clipPath id="clipPath6216" clipPathUnits="userSpaceOnUse">
      <path id="path6218" d="m 0,595.276 841.89,0 L 841.89,0 0,0 0,595.276 Z"/>
    </clipPath>
    <radialGradient id="radialGradient6236" spreadMethod="pad" gradientTransform="matrix(-15.621811,-2.1109314,2.1109314,-15.621811,716.50977,112.41797)" gradientUnits="userSpaceOnUse" r="1" cy="0" cx="0">
      <stop id="stop6238" offset="0" style="stop-opacity:1;stop-color:#abb9c1"/>
      <stop id="stop6240" offset="1" style="stop-opacity:1;stop-color:#373535"/>
    </radialGradient>
    <clipPath id="clipPath6248" clipPathUnits="userSpaceOnUse">
      <path id="path6250" d="m 0,595.276 841.89,0 L 841.89,0 0,0 0,595.276 Z"/>
    </clipPath>
    <radialGradient id="radialGradient6272" spreadMethod="pad" gradientTransform="matrix(1.8170929,0,0,-1.8170929,733.00684,111.16113)" gradientUnits="userSpaceOnUse" r="1" cy="0" cx="0">
      <stop id="stop6274" offset="0" style="stop-opacity:1;stop-color:#ffffff"/>
      <stop id="stop6276" offset="0.3219" style="stop-opacity:1;stop-color:#373535"/>
      <stop id="stop6278" offset="1" style="stop-opacity:1;stop-color:#373535"/>
    </radialGradient>
    <clipPath id="clipPath6286" clipPathUnits="userSpaceOnUse">
      <path id="path6288" d="m 0,595.276 841.89,0 L 841.89,0 0,0 0,595.276 Z"/>
    </clipPath>
    <radialGradient id="radialGradient6310" spreadMethod="pad" gradientTransform="matrix(1.8171997,0,0,-1.8171997,720.82422,117.12305)" gradientUnits="userSpaceOnUse" r="1" cy="0" cx="0">
      <stop id="stop6312" offset="0" style="stop-opacity:1;stop-color:#ffffff"/>
      <stop id="stop6314" offset="0.3219" style="stop-opacity:1;stop-color:#373535"/>
      <stop id="stop6316" offset="1" style="stop-opacity:1;stop-color:#373535"/>
    </radialGradient>
    <clipPath id="clipPath6324" clipPathUnits="userSpaceOnUse">
      <path id="path6326" d="m 0,595.276 841.89,0 L 841.89,0 0,0 0,595.276 Z"/>
    </clipPath>
    <radialGradient id="radialGradient6344" spreadMethod="pad" gradientTransform="matrix(15.564255,1.1590881,1.1590881,-15.564255,700.52539,85.826172)" gradientUnits="userSpaceOnUse" r="1" cy="0" cx="0">
      <stop id="stop6346" offset="0" style="stop-opacity:1;stop-color:#ffffff"/>
      <stop id="stop6348" offset="0.5466" style="stop-opacity:1;stop-color:#ffffff"/>
      <stop id="stop6350" offset="1" style="stop-opacity:1;stop-color:#9d8a79"/>
    </radialGradient>
    <radialGradient id="radialGradient6366" spreadMethod="pad" gradientTransform="matrix(15.227066,-3.4293518,-3.4293518,-15.227066,701.56836,82.110352)" gradientUnits="userSpaceOnUse" r="1" cy="0" cx="0">
      <stop id="stop6368" offset="0" style="stop-opacity:1;stop-color:#ffffff"/>
      <stop id="stop6370" offset="0.5466" style="stop-opacity:1;stop-color:#ffffff"/>
      <stop id="stop6372" offset="1" style="stop-opacity:1;stop-color:#9d8a79"/>
    </radialGradient>
    <radialGradient id="radialGradient6388" spreadMethod="pad" gradientTransform="matrix(15.223663,-3.4285736,-3.4285736,-15.223663,701.56738,82.108398)" gradientUnits="userSpaceOnUse" r="1" cy="0" cx="0">
      <stop id="stop6390" offset="0" style="stop-opacity:1;stop-color:#ffffff"/>
      <stop id="stop6392" offset="0.5466" style="stop-opacity:1;stop-color:#ffffff"/>
      <stop id="stop6394" offset="1" style="stop-opacity:1;stop-color:#9d8a79"/>
    </radialGradient>
    <radialGradient id="radialGradient6410" spreadMethod="pad" gradientTransform="matrix(15.216415,-3.4269409,-3.4269409,-15.216415,701.55859,82.111328)" gradientUnits="userSpaceOnUse" r="1" cy="0" cx="0">
      <stop id="stop6412" offset="0" style="stop-opacity:1;stop-color:#ffffff"/>
      <stop id="stop6414" offset="0.5466" style="stop-opacity:1;stop-color:#ffffff"/>
      <stop id="stop6416" offset="1" style="stop-opacity:1;stop-color:#9d8a79"/>
    </radialGradient>
    <radialGradient id="radialGradient6432" spreadMethod="pad" gradientTransform="matrix(15.568756,1.1594086,1.1594086,-15.568756,700.52246,85.830078)" gradientUnits="userSpaceOnUse" r="1" cy="0" cx="0">
      <stop id="stop6434" offset="0" style="stop-opacity:1;stop-color:#ffffff"/>
      <stop id="stop6436" offset="0.5466" style="stop-opacity:1;stop-color:#ffffff"/>
      <stop id="stop6438" offset="1" style="stop-opacity:1;stop-color:#9d8a79"/>
    </radialGradient>
    <radialGradient id="radialGradient6454" spreadMethod="pad" gradientTransform="matrix(12.340912,0,0,-12.340912,686.72949,79.866211)" gradientUnits="userSpaceOnUse" r="1" cy="0" cx="0">
      <stop id="stop6456" offset="0" style="stop-opacity:1;stop-color:#9c8a85"/>
      <stop id="stop6458" offset="0.6536" style="stop-opacity:1;stop-color:#9c8a85"/>
      <stop id="stop6460" offset="1" style="stop-opacity:1;stop-color:#736765"/>
    </radialGradient>
    <clipPath id="clipPath6468" clipPathUnits="userSpaceOnUse">
      <path id="path6470" d="m 0,595.276 841.89,0 L 841.89,0 0,0 0,595.276 Z"/>
    </clipPath>
  </defs>
  <g transform="matrix(1, 0, 0, 1, -5.304203, 14.231456)">
    <g id="g5772" transform="matrix(4.148984, 0, 0, -4.148984, -2777.568359, 654.428162)" style="">
      <g id="g5774">
        <g id="g5780">
          <g id="g5782">
            <path id="path5792" style="fill:url(#radialGradient5784);stroke:none" d="m 749.523,134.645 c 0,0 -16.049,-17.228 -0.796,-28.326 l 0,0 c 12.075,-8.784 24.491,5.817 25.578,17.816 l 0,0 c 0.489,-0.72 0.722,-1.193 0.722,-1.193 l 0,0 c -0.131,0.728 -0.362,1.43 -0.659,2.096 l 0,0 0,0.019 c 0.808,-1.075 1.191,-1.854 1.191,-1.854 l 0,0 c -0.202,1.122 -0.636,2.172 -1.187,3.129 l 0,0 0,0.104 c 1.136,-1.371 1.667,-2.454 1.667,-2.454 l 0,0 c -0.271,1.529 -0.979,2.928 -1.824,4.131 l 0,0 c -0.004,0.004 -0.006,0.007 -0.006,0.011 l 0,0 c 1.733,-1.789 2.525,-3.407 2.525,-3.407 l 0,0 c -0.381,2.152 -1.623,4.045 -2.907,5.499 l 0,0 c 2.331,-2.084 3.384,-4.232 3.384,-4.232 l 0,0 c -0.709,3.97 -4.342,7.063 -5.753,8.132 l 0,0 c -2.648,3.059 -6.103,4.058 -9.483,4.058 l 0,0 c -6.356,0 -12.452,-3.529 -12.452,-3.529"/>
          </g>
        </g>
      </g>
    </g>
    <g id="g5794" transform="matrix(4.148984, 0, 0, -4.148984, -2777.568359, 654.428162)" style="">
      <g id="g5796">
        <g id="g5802">
          <g id="g5804">
            <path id="path5814" style="fill:url(#radialGradient5806);stroke:none" d="m 736.478,51.376 c -0.288,-0.245 0.891,-2.08 0.891,-2.08 l 0,0 3.085,-1.928 c 0,0 2.924,1.693 0.773,4.363 l 0,0 c -0.405,0.502 -0.991,0.68 -1.614,0.68 l 0,0 c -1.378,10e-4 -2.94,-0.869 -3.135,-1.035"/>
          </g>
        </g>
      </g>
    </g>
    <g id="g5816" transform="matrix(4.148984, 0, 0, -4.148984, -2777.568359, 654.428162)" style="">
      <g id="g5818">
        <g id="g5824">
          <g id="g5826">
            <path id="path5836" style="fill:url(#radialGradient5828);stroke:none" d="m 736.717,50.693 c -0.283,-0.242 0.978,-2.379 0.978,-2.379 l 0,0 3.077,-1.928 c 0,0 2.93,1.694 0.778,4.365 l 0,0 c -0.454,0.564 -1.149,0.756 -1.871,0.756 l 0,0 c -1.34,0 -2.776,-0.657 -2.962,-0.814"/>
          </g>
        </g>
      </g>
    </g>
    <g id="g5838" transform="matrix(4.148984, 0, 0, -4.148984, -2777.568359, 654.428162)" style="">
      <g id="g5840">
        <g id="g5846">
          <g id="g5848">
            <path id="path5858" style="fill:url(#radialGradient5850);stroke:none" d="m 724.721,67.888 c -4.2,-1.916 -6.052,-6.881 -4.139,-11.085 l 0,0 c 1.463,-3.205 4.697,-5.035 8.011,-4.881 l 0,0 c 0.239,-0.699 0.641,-1.478 1.248,-2.217 l 0,0 c -0.306,-1.148 -0.792,-4.272 3.428,-3.702 l 0,0 c 0.771,0.105 1.87,-0.043 3.022,-0.189 l 0,0 c 1.988,-0.254 4.133,-0.508 5.02,0.534 l 0,0 c 1.179,1.385 0.668,3.239 -0.526,3.883 l 0,0 c -1.272,0.688 -2.943,0.015 -2.943,0.015 l 0,0 c 1.474,3.198 0.777,9.676 -2.205,13.827 l 0,0 c -1.464,2.878 -4.393,4.569 -7.454,4.569 l 0,0 c -1.159,0 -2.337,-0.242 -3.462,-0.754"/>
          </g>
        </g>
      </g>
    </g>
    <g id="g5860" transform="matrix(4.148984, 0, 0, -4.148984, -2777.568359, 654.428162)" style="">
      <g id="g5862">
        <g id="g5868">
          <g id="g5870">
            <path id="path5880" style="fill:url(#radialGradient5872);stroke:none" d="m 695.047,51.731 c -2.15,-2.67 0.778,-4.363 0.778,-4.363 l 0,0 3.079,1.928 c 0,0 1.18,1.835 0.894,2.08 l 0,0 c -0.197,0.166 -1.759,1.036 -3.137,1.035 l 0,0 c -0.624,0 -1.21,-0.178 -1.614,-0.68"/>
          </g>
        </g>
      </g>
    </g>
    <g id="g5882" transform="matrix(4.148984, 0, 0, -4.148984, -2777.568359, 654.428162)" style="">
      <g id="g5884">
        <g id="g5890">
          <g id="g5892">
            <path id="path5902" style="fill:url(#radialGradient5894);stroke:none" d="m 694.723,50.751 c -2.149,-2.671 0.779,-4.365 0.779,-4.365 l 0,0 3.082,1.928 c 0,0 1.26,2.137 0.976,2.379 l 0,0 c -0.188,0.157 -1.624,0.814 -2.964,0.814 l 0,0 c -0.723,0 -1.418,-0.192 -1.873,-0.756"/>
          </g>
        </g>
      </g>
    </g>
    <g id="g5904" transform="matrix(4.148984, 0, 0, -4.148984, -2777.568359, 654.428162)" style="">
      <g id="g5906">
        <g id="g5912">
          <g id="g5914">
            <path id="path5924" style="fill:url(#radialGradient5916);stroke:none" d="m 700.636,64.073 c -2.978,-4.151 -3.675,-10.629 -2.202,-13.827 l 0,0 c 0,0 -1.676,0.673 -2.944,-0.015 l 0,0 c -1.192,-0.644 -1.703,-2.498 -0.529,-3.883 l 0,0 c 0.888,-1.042 3.035,-0.788 5.025,-0.534 l 0,0 c 1.152,0.146 2.252,0.294 3.024,0.189 l 0,0 c 4.215,-0.57 3.73,2.554 3.422,3.702 l 0,0 c 0.609,0.739 1.009,1.518 1.255,2.217 l 0,0 c 3.311,-0.154 6.546,1.676 8.005,4.881 l 0,0 c 1.918,4.204 0.067,9.169 -4.139,11.085 l 0,0 c -1.125,0.512 -2.303,0.754 -3.462,0.754 l 0,0 c -3.06,0 -5.989,-1.691 -7.455,-4.569"/>
          </g>
        </g>
      </g>
    </g>
    <g id="g5926" transform="matrix(4.148984, 0, 0, -4.148984, -2777.568359, 654.428162)" style="">
      <g id="g5928">
        <g id="g5934">
          <g id="g5936">
            <path id="path5946" style="fill:url(#radialGradient5938);stroke:none" d="m 724.198,77.338 8.274,-11.74 c 0,0 10.022,2.203 9.363,11.02 l 0,0 c -0.466,6.185 -8.925,10.759 -8.925,10.759 l 0,0 -8.712,-10.039 z"/>
          </g>
        </g>
      </g>
    </g>
    <g id="g5948" transform="matrix(4.148984, 0, 0, -4.148984, -2777.568359, 654.428162)" style="">
      <g id="g5950">
        <g id="g5956">
          <g id="g5958">
            <path id="path5968" style="fill:url(#radialGradient5960);stroke:none" d="m 688.735,78.265 c -0.603,-3.428 -1.007,-9.376 6.049,-6.756 l 0,0 c 7.056,2.622 10.784,4.537 10.784,4.537 l 0,0 2.62,13.911 c 0,0 1.759,0.341 -1.159,0.593 l 0,0 c -0.04,0.003 -0.082,0.005 -0.126,0.005 l 0,0 c -3.193,10e-4 -17.572,-8.911 -18.168,-12.29"/>
          </g>
        </g>
      </g>
    </g>
    <g id="g5970" transform="matrix(4.148984, 0, 0, -4.148984, -2777.568359, 654.428162)" style="">
      <g id="g5972">
        <g id="g5978">
          <g id="g5980">
            <path id="path5990" style="fill:url(#radialGradient5982);stroke:none" d="m 700.637,64.569 c 7.482,-16.527 32.76,-11.36 35.753,0.801 l 0,0 c 3.202,13.007 -8.739,27.213 -8.739,27.213 l 0,0 -17.941,0.801 c 0,0 -15.917,-13.684 -9.073,-28.815"/>
          </g>
        </g>
      </g>
    </g>
    <g id="g5992" transform="matrix(4.148984, 0, 0, -4.148984, -2777.568359, 654.428162)" style="">
      <g clip-path="url(#clipPath5996)" id="g5994">
        <g transform="translate(727.6514,92.583)" id="g6000">
          <path id="path6002" style="fill:#827572;fill-opacity:1;fill-rule:nonzero;stroke:none" d="m 0,0 -17.941,0.801 c 0,0 -1.045,-0.896 -2.479,-2.483 2.186,-1.866 4.666,-3.457 7.425,-4.684 0.796,-0.354 1.598,-0.668 2.402,-0.948 0.115,-0.881 0.496,-2.434 1.781,-2.951 1.358,-0.545 3.561,-0.466 5.382,1.391 2.985,-0.277 5.958,-0.105 8.832,0.477 C 2.86,-3.402 0,0 0,0"/>
        </g>
      </g>
    </g>
    <g id="g6004" transform="matrix(4.148984, 0, 0, -4.148984, -2777.568359, 654.428162)" style="">
      <g id="g6006">
        <g id="g6012">
          <g id="g6014">
            <path id="path6024" style="fill:url(#radialGradient6016);stroke:none" d="m 702.841,75.325 c 0,-9.503 6.863,-16.701 15.187,-16.701 l 0,0 c 8.32,0 14.944,7.198 14.944,16.701 l 0,0 c 0,9.503 -6.743,17.209 -15.068,17.209 l 0,0 c -8.319,0 -15.063,-7.706 -15.063,-17.209"/>
          </g>
        </g>
      </g>
    </g>
    <g id="g6026" transform="matrix(4.148984, 0, 0, -4.148984, -2777.568359, 654.428162)" style="">
      <g clip-path="url(#clipPath6030)" id="g6028">
        <g transform="translate(717.9043,92.5342)" id="g6034">
          <path id="path6036" style="fill:#d2d4d5;fill-opacity:1;fill-rule:nonzero;stroke:none" d="m 0,0 c -3.248,0 -6.252,-1.178 -8.712,-3.176 1.676,-1.209 3.503,-2.267 5.464,-3.141 0.796,-0.354 1.598,-0.668 2.402,-0.949 0.116,-0.88 0.496,-2.433 1.782,-2.95 1.357,-0.545 3.56,-0.467 5.381,1.391 2.276,-0.212 4.549,-0.162 6.774,0.131 C 10.496,-3.503 5.607,0 0,0"/>
        </g>
      </g>
    </g>
    <g id="g6038" transform="matrix(4.148984, 0, 0, -4.148984, -2777.568359, 654.428162)" style="">
      <g id="g6040">
        <g id="g6046">
          <g id="g6048">
            <path id="path6058" style="fill:url(#radialGradient6050);stroke:none" d="m 721.43,90.977 -3.901,-3.357 c 0,0 -0.005,-2.843 1.828,-3.579 l 0,0 c 1.799,-0.723 5.088,-0.352 6.996,3.805 l 0,0 c 1.279,2.783 -1.361,3.243 -3.246,3.243 l 0,0 c -0.931,0 -1.677,-0.112 -1.677,-0.112"/>
          </g>
        </g>
      </g>
    </g>
    <g id="g6060" transform="matrix(4.148984, 0, 0, -4.148984, -2777.568359, 654.428162)" style="">
      <g id="g6062">
        <g id="g6068">
          <g id="g6070">
            <path id="path6078" style="fill:url(#linearGradient6072);stroke:none" d="m 718.249,88.947 c 0,0 -0.737,-3.137 0.861,-4.011 l 0,0 c 3.566,-1.946 6.064,4.087 6.064,4.087 l 0,0 -2.341,1.472 -4.584,-1.548 z"/>
          </g>
        </g>
      </g>
    </g>
    <g id="g6080" transform="matrix(4.148984, 0, 0, -4.148984, -2777.568359, 654.428162)" style="">
      <g id="g6082">
        <g id="g6088">
          <g id="g6090">
            <path id="path6100" style="fill:url(#radialGradient6092);stroke:none" d="m 750.374,130.941 c -6.144,-5.253 -7.644,-13.695 -3.861,-19.223 l 0,0 c 4.643,-6.791 12.209,-6.265 18.355,-1.007 l 0,0 c 6.147,5.255 7.914,14.682 3.901,20.044 l 0,0 c -2.031,2.714 -5.145,4.076 -8.523,4.076 l 0,0 c -3.293,0 -6.836,-1.293 -9.872,-3.89"/>
          </g>
        </g>
      </g>
    </g>
    <g id="g6102" transform="matrix(4.148984, 0, 0, -4.148984, -2777.568359, 654.428162)" style="">
      <g id="g6104">
        <g id="g6110">
          <g id="g6112">
            <path id="path6122" style="fill:url(#radialGradient6114);stroke:none" d="m 750.261,129.681 c -3.329,-2.843 -5.288,-6.62 -5.793,-10.365 l 0,0 c -0.127,-2.738 0.538,-5.398 2.045,-7.598 l 0,0 c 4.643,-6.791 12.209,-6.265 18.355,-1.007 l 0,0 c 3.349,2.864 5.396,6.963 5.919,10.972 l 0,0 c 0.141,2.902 -0.537,5.68 -2.131,7.811 l 0,0 c -2.031,2.715 -5.147,4.078 -8.526,4.078 l 0,0 c -3.293,0 -6.836,-1.294 -9.869,-3.891"/>
          </g>
        </g>
      </g>
    </g>
    <g id="g6124" transform="matrix(4.148984, 0, 0, -4.148984, -2777.568359, 654.428162)" style="">
      <g id="g6126">
        <g id="g6132">
          <g id="g6134">
            <path id="path6144" style="fill:url(#radialGradient6136);stroke:none" d="m 703.634,155.992 c -1.773,0.019 -6.543,-0.196 -9.534,-2.898 l 0,0 c 0,0 2.143,1.053 5.267,1.27 l 0,0 c -1.906,-0.363 -4.049,-1.098 -5.669,-2.558 l 0,0 c 0,0 1.618,0.79 4.083,1.14 l 0,0 c -0.004,-0.003 -0.004,-0.005 -0.007,-0.006 l 0,0 c -1.404,-0.433 -2.823,-1.105 -3.973,-2.144 l 0,0 c 0,0 1.078,0.527 2.816,0.915 l 0,0 c -0.02,-0.027 -0.039,-0.055 -0.061,-0.082 l 0,0 c -1.023,-0.417 -2.013,-0.981 -2.857,-1.744 l 0,0 c 0,0 0.777,0.383 2.075,0.734 l 0,0 c -0.003,-0.007 -0.005,-0.01 -0.01,-0.016 l 0,0 c -0.64,-0.344 -1.253,-0.755 -1.804,-1.253 l 0,0 c 0,0 0.475,0.232 1.303,0.504 l 0,0 c -6.497,-10.147 -5.64,-29.296 9.284,-29.759 l 0,0 c 18.853,-0.582 16.735,22.868 16.735,22.868 l 0,0 c 0,0 -5.389,13.261 -15.346,13.261 l 0,0 c -0.741,0 -1.509,-0.074 -2.302,-0.232"/>
          </g>
        </g>
      </g>
    </g>
    <g id="g6146" transform="matrix(4.148984, 0, 0, -4.148984, -2777.568359, 654.428162)" style="">
      <g id="g6148">
        <g id="g6154">
          <g id="g6156">
            <path id="path6166" style="fill:url(#radialGradient6158);stroke:none" d="m 703.693,151.689 c -6.459,-1.777 -10.845,-10.306 -9.21,-18.226 l 0,0 c 1.638,-7.923 7.289,-12.975 15.124,-10.461 l 0,0 c 6.373,2.049 10.366,9.636 8.731,17.556 l 0,0 c -1.407,6.841 -6.49,11.49 -12.006,11.49 l 0,0 c -0.873,0 -1.757,-0.117 -2.639,-0.359"/>
          </g>
        </g>
      </g>
    </g>
    <g id="g6168" transform="matrix(4.148984, 0, 0, -4.148984, -2777.568359, 654.428162)" style="">
      <g id="g6170">
        <g id="g6176">
          <g id="g6178">
            <path id="path6188" style="fill:url(#radialGradient6180);stroke:none" d="m 703.01,150.623 c -2.57,-0.706 -4.807,-2.484 -6.469,-4.865 l 0,0 c -2.046,-3.484 -2.945,-7.98 -2.058,-12.295 l 0,0 c 1.638,-7.923 7.289,-12.975 15.124,-10.461 l 0,0 c 2.536,0.816 4.692,2.509 6.273,4.752 l 0,0 c 1.893,3.265 2.661,7.453 1.777,11.739 l 0,0 c -1.41,6.842 -6.491,11.49 -12.007,11.489 l 0,0 c -0.874,0 -1.758,-0.116 -2.64,-0.359"/>
          </g>
        </g>
      </g>
    </g>
    <g id="g6190" transform="matrix(4.148984, 0, 0, -4.148984, -2777.568359, 654.428162)" style="">
      <g id="g6192">
        <g id="g6198">
          <g id="g6200">
            <path id="path6210" style="fill:url(#radialGradient6202);stroke:none" d="m 736.503,144.389 c -14.525,4.589 -30.463,-2.307 -36.776,-16.485 l 0,0 c -6.791,-15.25 0.127,-33.143 15.445,-39.961 l 0,0 c 8,-3.564 16.703,-3.398 24.164,-0.267 l 0,0 c -0.463,-1.205 -1.153,-2.123 -1.153,-2.123 l 0,0 c 1.053,0.543 1.838,1.478 2.408,2.414 l 0,0 c -0.338,-1.679 -1.461,-3.171 -1.461,-3.171 l 0,0 c 1.877,0.966 2.908,3.181 3.36,4.42 l 0,0 c 5.45,3.069 9.987,7.841 12.722,13.984 l 0,0 c 6.721,15.091 0.007,32.768 -14.989,39.742 l 0,0 c 1.731,1.526 3.807,2.829 3.807,2.829 l 0,0 c -1.464,0.118 -3.867,-0.865 -5.177,-1.699 l 0,0 c 0.91,1.368 3.177,2.496 3.177,2.496 l 0,0 c -0.142,0.007 -0.281,0.011 -0.418,0.011 l 0,0 c -2.374,0 -4.044,-1.11 -5.109,-2.19"/>
          </g>
        </g>
      </g>
    </g>
    <g id="g6212" transform="matrix(4.148984, 0, 0, -4.148984, -2777.568359, 654.428162)" style="">
      <g clip-path="url(#clipPath6216)" id="g6214">
        <g transform="translate(713.8086,104.6787)" id="g6220">
          <path id="path6222" style="fill:#827572;fill-opacity:1;fill-rule:nonzero;stroke:none" d="m 0,0 c -2.467,-5.43 -1.073,-11.378 3.116,-13.282 4.191,-1.906 9.59,0.952 12.059,6.383 2.468,5.429 1.078,11.376 -3.113,13.28 C 7.869,8.29 2.472,5.431 0,0"/>
        </g>
      </g>
    </g>
    <g id="g6224" transform="matrix(4.148984, 0, 0, -4.148984, -2777.568359, 654.428162)" style="">
      <g id="g6226">
        <g id="g6232">
          <g id="g6234">
            <path id="path6242" style="fill:url(#radialGradient6236);stroke:none" d="m 713.237,105.365 c -2.468,-5.433 -1.073,-11.378 3.121,-13.284 l 0,0 c 4.184,-1.905 9.586,0.954 12.056,6.381 l 0,0 c 2.468,5.432 1.076,11.378 -3.119,13.282 l 0,0 c -0.882,0.401 -1.817,0.592 -2.767,0.592 l 0,0 c -3.565,0 -7.339,-2.684 -9.291,-6.971"/>
          </g>
        </g>
      </g>
    </g>
    <g id="g6244" transform="matrix(4.148984, 0, 0, -4.148984, -2777.568359, 654.428162)" style="">
      <g clip-path="url(#clipPath6248)" id="g6246">
        <g transform="translate(734.3672,109.957)" id="g6252">
          <path id="path6254" style="fill:#827572;fill-opacity:1;fill-rule:nonzero;stroke:none" d="m 0,0 c -0.406,-0.817 -1.377,-1.194 -2.172,-0.836 -0.796,0.359 -1.114,1.314 -0.714,2.137 0.404,0.821 1.379,1.194 2.177,0.836 C 0.084,1.778 0.402,0.824 0,0"/>
        </g>
        <g transform="translate(734.168,109.5527)" id="g6256">
          <path id="path6258" style="fill:#aca598;fill-opacity:1;fill-rule:nonzero;stroke:none" d="m 0,0 c -0.398,-0.821 -1.369,-1.197 -2.167,-0.84 -0.797,0.36 -1.117,1.315 -0.713,2.136 0.406,0.821 1.377,1.196 2.171,0.839 C 0.088,1.775 0.408,0.821 0,0"/>
        </g>
      </g>
    </g>
    <g id="g6260" transform="matrix(4.148984, 0, 0, -4.148984, -2777.568359, 654.428162)" style="">
      <g id="g6262">
        <g id="g6268">
          <g id="g6270">
            <path id="path6280" style="fill:url(#radialGradient6272);stroke:none" d="m 731.386,111.038 c -0.404,-0.819 -0.087,-1.775 0.707,-2.134 l 0,0 c 0.798,-0.357 1.772,0.016 2.173,0.838 l 0,0 c 0.4,0.821 0.085,1.775 -0.711,2.133 l 0,0 c -0.204,0.093 -0.42,0.137 -0.636,0.137 l 0,0 c -0.621,0 -1.235,-0.364 -1.533,-0.974"/>
          </g>
        </g>
      </g>
    </g>
    <g id="g6282" transform="matrix(4.148984, 0, 0, -4.148984, -2777.568359, 654.428162)" style="">
      <g clip-path="url(#clipPath6286)" id="g6284">
        <g transform="translate(722.1836,115.9219)" id="g6290">
          <path id="path6292" style="fill:#827572;fill-opacity:1;fill-rule:nonzero;stroke:none" d="m 0,0 c -0.408,-0.821 -1.375,-1.195 -2.173,-0.836 -0.795,0.357 -1.115,1.312 -0.713,2.134 0.403,0.821 1.377,1.193 2.172,0.838 C 0.084,1.777 0.4,0.822 0,0"/>
        </g>
        <g transform="translate(721.9844,115.5146)" id="g6294">
          <path id="path6296" style="fill:#aca598;fill-opacity:1;fill-rule:nonzero;stroke:none" d="m 0,0 c -0.399,-0.819 -1.371,-1.196 -2.171,-0.838 -0.794,0.358 -1.113,1.316 -0.705,2.136 0.402,0.82 1.372,1.195 2.164,0.838 C 0.088,1.776 0.406,0.821 0,0"/>
        </g>
      </g>
    </g>
    <g id="g6298" transform="matrix(4.148984, 0, 0, -4.148984, -2777.568359, 654.428162)" style="">
      <g id="g6300">
        <g id="g6306">
          <g id="g6308">
            <path id="path6318" style="fill:url(#radialGradient6310);stroke:none" d="m 719.2,117.002 c -0.401,-0.822 -0.084,-1.778 0.711,-2.136 l 0,0 c 0.798,-0.357 1.767,0.018 2.173,0.839 l 0,0 c 0.4,0.822 0.084,1.776 -0.714,2.136 l 0,0 c -0.203,0.091 -0.418,0.134 -0.632,0.134 l 0,0 c -0.621,0 -1.237,-0.364 -1.538,-0.973"/>
          </g>
        </g>
      </g>
    </g>
    <g id="g6320" transform="matrix(4.148984, 0, 0, -4.148984, -2777.568359, 654.428162)" style="">
      <g clip-path="url(#clipPath6324)" id="g6322">
        <g transform="translate(699.8555,71.9189)" id="g6328">
          <path id="path6330" style="fill:#00a85a;fill-opacity:1;fill-rule:nonzero;stroke:none" d="m 0,0 0.707,0.777 c -7.03,6.404 -6.282,12.577 -6.274,12.638 l -1.037,0.146 C -6.646,13.288 -7.47,6.803 0,0"/>
        </g>
      </g>
    </g>
    <g id="g6332" transform="matrix(4.148984, 0, 0, -4.148984, -2777.568359, 654.428162)" style="">
      <g id="g6334">
        <g id="g6340">
          <g id="g6342">
            <path id="path6352" style="fill:url(#radialGradient6344);stroke:none" d="m 696.346,77.524 c -1.098,-0.769 -2.353,-1.54 -3.379,-1.372 l 0,0 0.379,-1.564 c 0,0 6.117,2.708 5.593,4.129 l 0,0 c -0.052,0.141 -0.148,0.202 -0.282,0.202 l 0,0 c -0.448,0 -1.315,-0.697 -2.311,-1.395"/>
          </g>
        </g>
      </g>
    </g>
    <g id="g6354" transform="matrix(4.148984, 0, 0, -4.148984, -2777.568359, 654.428162)" style="">
      <g id="g6356">
        <g id="g6362">
          <g id="g6364">
            <path id="path6374" style="fill:url(#radialGradient6366);stroke:none" d="m 693.41,77.133 1.428,-0.745 c 0.181,2.261 4.93,4.505 3.925,5.187 l 0,0 c -0.094,0.063 -0.202,0.092 -0.324,0.092 l 0,0 c -1.517,0 -5.029,-4.534 -5.029,-4.534"/>
          </g>
        </g>
      </g>
    </g>
    <g id="g6376" transform="matrix(4.148984, 0, 0, -4.148984, -2777.568359, 654.428162)" style="">
      <g id="g6378">
        <g id="g6384">
          <g id="g6386">
            <path id="path6396" style="fill:url(#radialGradient6388);stroke:none" d="m 691.914,78.105 1.423,-0.748 c 0.184,2.259 4.932,4.507 3.926,5.187 l 0,0 c -0.093,0.062 -0.202,0.092 -0.324,0.092 l 0,0 c -1.52,-10e-4 -5.025,-4.531 -5.025,-4.531"/>
          </g>
        </g>
      </g>
    </g>
    <g id="g6398" transform="matrix(4.148984, 0, 0, -4.148984, -2777.568359, 654.428162)" style="">
      <g id="g6400">
        <g id="g6406">
          <g id="g6408">
            <path id="path6418" style="fill:url(#radialGradient6410);stroke:none" d="m 689.288,78.06 1.424,-0.74 c 0.183,2.254 4.926,4.504 3.919,5.183 l 0,0 c -0.093,0.063 -0.202,0.092 -0.323,0.092 l 0,0 c -1.514,0 -5.02,-4.535 -5.02,-4.535"/>
          </g>
        </g>
      </g>
    </g>
    <g id="g6420" transform="matrix(4.148984, 0, 0, -4.148984, -2777.568359, 654.428162)" style="">
      <g id="g6422">
        <g id="g6428">
          <g id="g6430">
            <path id="path6440" style="fill:url(#radialGradient6432);stroke:none" d="m 696.532,75.742 c -1.225,-0.614 -2.633,-1.228 -3.654,-0.899 l 0,0 0.143,-1.601 c 0,0 6.456,1.757 6.148,3.244 l 0,0 c -0.035,0.174 -0.148,0.246 -0.322,0.246 l 0,0 c -0.455,0.001 -1.326,-0.495 -2.315,-0.99"/>
          </g>
        </g>
      </g>
    </g>
    <g id="g6442" transform="matrix(4.148984, 0, 0, -4.148984, -2777.568359, 654.428162)" style="">
      <g id="g6444">
        <g id="g6450">
          <g id="g6452">
            <path id="path6462" style="fill:url(#radialGradient6454);stroke:none" d="m 687.613,77.95 c -2.757,-7.087 4.723,-8.79 6.822,-6.955 l 0,0 c 2.823,2.469 4.297,5.957 2.493,8.659 l 0,0 c -0.75,1.126 -1.868,1.55 -3.073,1.55 l 0,0 c -2.681,0 -5.795,-2.1 -6.242,-3.254"/>
          </g>
        </g>
      </g>
    </g>
    <g id="g6464" transform="matrix(4.148984, 0, 0, -4.148984, -2777.568359, 654.428162)" style="">
      <g clip-path="url(#clipPath6468)" id="g6466">
        <g transform="translate(702.6123,92.5732)" id="g6472">
          <path id="path6474" style="fill:#ffde22;fill-opacity:1;fill-rule:nonzero;stroke:none" d="m 0,0 c 0,2.233 -1.812,4.039 -4.043,4.039 -0.342,0 -0.671,-0.044 -0.985,-0.126 -0.104,2.138 -1.865,3.841 -4.029,3.841 -2.149,0 -3.895,-1.67 -4.03,-3.78 -0.231,0.043 -0.468,0.065 -0.709,0.065 -2.235,0 -4.044,-1.806 -4.044,-4.039 0,-1.765 1.136,-3.257 2.703,-3.812 0,-0.061 -0.007,-0.122 -0.007,-0.183 0,-2.232 1.812,-4.04 4.04,-4.04 0.826,0 1.591,0.248 2.229,0.671 0.702,-0.593 1.61,-0.95 2.602,-0.95 2.234,0 4.044,1.81 4.044,4.039 0,0.219 -0.024,0.431 -0.058,0.639 C -0.936,-2.981 0,-1.603 0,0"/>
        </g>
        <g transform="translate(695.8906,91.8555)" id="g6476">
          <path id="path6478" style="fill:#ffffff;fill-opacity:1;fill-rule:nonzero;stroke:none" d="m 0,0 c 0,-1.278 -1.037,-2.313 -2.314,-2.313 -1.275,0 -2.312,1.035 -2.312,2.313 0,1.276 1.037,2.313 2.312,2.313 C -1.037,2.313 0,1.276 0,0"/>
        </g>
      </g>
    </g>
  </g>
</svg>