<?xml version="1.0" encoding="utf-8"?>
<svg viewBox="0 0 500 500" xmlns="http://www.w3.org/2000/svg">
  <defs>
    <linearGradient id="linearGradient944" spreadMethod="pad" gradientTransform="matrix(-3.6580963,-1.0317841,-1.0317841,3.6580963,457.15918,353.74316)" gradientUnits="userSpaceOnUse" y2="0" x2="1" y1="0" x1="0">
      <stop id="stop946" offset="0" style="stop-opacity:1;stop-color:#aaacae"/>
      <stop id="stop948" offset="0.9366" style="stop-opacity:1;stop-color:#737577"/>
      <stop id="stop950" offset="1" style="stop-opacity:1;stop-color:#737577"/>
    </linearGradient>
    <radialGradient id="radialGradient966" spreadMethod="pad" gradientTransform="matrix(8.5076447,0,0,-8.5076294,431.46289,402.35449)" gradientUnits="userSpaceOnUse" r="1" cy="0" cx="0">
      <stop id="stop968" offset="0" style="stop-opacity:1;stop-color:#d2d4d5"/>
      <stop id="stop970" offset="0.2472" style="stop-opacity:1;stop-color:#d2d4d5"/>
      <stop id="stop972" offset="1" style="stop-opacity:1;stop-color:#858789"/>
    </radialGradient>
    <radialGradient id="radialGradient988" spreadMethod="pad" gradientTransform="matrix(-1.7097626,-13.551224,-13.551224,1.7097626,435.42187,394.44141)" gradientUnits="userSpaceOnUse" r="1" cy="0" cx="0">
      <stop id="stop990" offset="0" style="stop-opacity:1;stop-color:#96989b"/>
      <stop id="stop992" offset="0.7627" style="stop-opacity:1;stop-color:#96989b"/>
      <stop id="stop994" offset="1" style="stop-opacity:1;stop-color:#606163"/>
    </radialGradient>
    <radialGradient id="radialGradient1010" spreadMethod="pad" gradientTransform="matrix(19.133499,0,0,-19.133499,406.37256,420.97266)" gradientUnits="userSpaceOnUse" r="1" cy="0" cx="0">
      <stop id="stop1012" offset="0" style="stop-opacity:1;stop-color:#d2d4d5"/>
      <stop id="stop1014" offset="0.2472" style="stop-opacity:1;stop-color:#d2d4d5"/>
      <stop id="stop1016" offset="1" style="stop-opacity:1;stop-color:#858789"/>
    </radialGradient>
    <radialGradient id="radialGradient1032" spreadMethod="pad" gradientTransform="matrix(30.876587,0,0,-30.876587,426.75195,354.01172)" gradientUnits="userSpaceOnUse" r="1" cy="0" cx="0">
      <stop id="stop1034" offset="0" style="stop-opacity:1;stop-color:#aaacae"/>
      <stop id="stop1036" offset="0.646" style="stop-opacity:1;stop-color:#aaacae"/>
      <stop id="stop1038" offset="0.8876" style="stop-opacity:1;stop-color:#858789"/>
      <stop id="stop1040" offset="1" style="stop-opacity:1;stop-color:#96989b"/>
    </radialGradient>
    <clipPath id="clipPath1048" clipPathUnits="userSpaceOnUse">
      <path id="path1050" d="m 0,595.276 841.89,0 L 841.89,0 0,0 0,595.276 Z"/>
    </clipPath>
    <radialGradient id="radialGradient1076" spreadMethod="pad" gradientTransform="matrix(28.142914,0,0,-28.142914,403.54248,351.96484)" gradientUnits="userSpaceOnUse" r="1" cy="0" cx="0">
      <stop id="stop1078" offset="0" style="stop-opacity:1;stop-color:#737577"/>
      <stop id="stop1080" offset="0.646" style="stop-opacity:1;stop-color:#737577"/>
      <stop id="stop1082" offset="0.8876" style="stop-opacity:1;stop-color:#858789"/>
      <stop id="stop1084" offset="1" style="stop-opacity:1;stop-color:#96989b"/>
    </radialGradient>
    <radialGradient id="radialGradient1100" spreadMethod="pad" gradientTransform="matrix(7.1129303,0,0,-7.1129303,397.56885,334.4707)" gradientUnits="userSpaceOnUse" r="1" cy="0" cx="0">
      <stop id="stop1102" offset="0" style="stop-opacity:1;stop-color:#ffffff"/>
      <stop id="stop1104" offset="0.0634" style="stop-opacity:1;stop-color:#ffffff"/>
      <stop id="stop1106" offset="1" style="stop-opacity:1;stop-color:#bec0c2"/>
    </radialGradient>
    <radialGradient id="radialGradient1122" spreadMethod="pad" gradientTransform="matrix(67.183472,0,0,-67.183472,393.13525,397.18555)" gradientUnits="userSpaceOnUse" r="1" cy="0" cx="0">
      <stop id="stop1124" offset="0" style="stop-opacity:1;stop-color:#aaacae"/>
      <stop id="stop1126" offset="0.646" style="stop-opacity:1;stop-color:#aaacae"/>
      <stop id="stop1128" offset="0.8876" style="stop-opacity:1;stop-color:#858789"/>
      <stop id="stop1130" offset="1" style="stop-opacity:1;stop-color:#96989b"/>
    </radialGradient>
    <radialGradient id="radialGradient1146" spreadMethod="pad" gradientTransform="matrix(19.49472,0,0,-19.49472,364.80811,384.72852)" gradientUnits="userSpaceOnUse" r="1" cy="0" cx="0">
      <stop id="stop1148" offset="0" style="stop-opacity:1;stop-color:#ffffff"/>
      <stop id="stop1150" offset="0.0112" style="stop-opacity:1;stop-color:#ffffff"/>
      <stop id="stop1152" offset="0.1348" style="stop-opacity:1;stop-color:#e7e8e9"/>
      <stop id="stop1154" offset="0.6827" style="stop-opacity:1;stop-color:#e7e8e9"/>
      <stop id="stop1156" offset="0.8876" style="stop-opacity:1;stop-color:#bec0c2"/>
      <stop id="stop1158" offset="1" style="stop-opacity:1;stop-color:#d2d4d5"/>
    </radialGradient>
    <clipPath id="clipPath1166" clipPathUnits="userSpaceOnUse">
      <path id="path1168" d="m 0,595.276 841.89,0 L 841.89,0 0,0 0,595.276 Z"/>
    </clipPath>
    <radialGradient id="radialGradient1186" spreadMethod="pad" gradientTransform="matrix(3.0378113,0,0,-3.0378113,386.30908,378.07324)" gradientUnits="userSpaceOnUse" r="1" cy="0" cx="0">
      <stop id="stop1188" offset="0" style="stop-opacity:1;stop-color:#ffffff"/>
      <stop id="stop1190" offset="0.3219" style="stop-opacity:1;stop-color:#373535"/>
      <stop id="stop1192" offset="1" style="stop-opacity:1;stop-color:#373535"/>
    </radialGradient>
    <radialGradient id="radialGradient1208" spreadMethod="pad" gradientTransform="matrix(7.6456451,0,0,-7.6456451,459.53613,360.48145)" gradientUnits="userSpaceOnUse" r="1" cy="0" cx="0">
      <stop id="stop1210" offset="0" style="stop-opacity:1;stop-color:#aaacae"/>
      <stop id="stop1212" offset="0.646" style="stop-opacity:1;stop-color:#aaacae"/>
      <stop id="stop1214" offset="0.8876" style="stop-opacity:1;stop-color:#858789"/>
      <stop id="stop1216" offset="1" style="stop-opacity:1;stop-color:#96989b"/>
    </radialGradient>
    <clipPath id="clipPath1224" clipPathUnits="userSpaceOnUse">
      <path id="path1226" d="m 0,595.276 841.89,0 L 841.89,0 0,0 0,595.276 Z"/>
    </clipPath>
    <radialGradient id="radialGradient1248" spreadMethod="pad" gradientTransform="matrix(8.803772,0,0,-8.803772,400.14795,324.62402)" gradientUnits="userSpaceOnUse" r="1" cy="0" cx="0">
      <stop id="stop1250" offset="0" style="stop-opacity:1;stop-color:#ffffff"/>
      <stop id="stop1252" offset="0.0634" style="stop-opacity:1;stop-color:#ffffff"/>
      <stop id="stop1254" offset="1" style="stop-opacity:1;stop-color:#bec0c2"/>
    </radialGradient>
    <radialGradient id="radialGradient1270" spreadMethod="pad" gradientTransform="matrix(22.72728,0,0,-22.727264,442.56738,339.90332)" gradientUnits="userSpaceOnUse" r="1" cy="0" cx="0">
      <stop id="stop1272" offset="0" style="stop-opacity:1;stop-color:#aaacae"/>
      <stop id="stop1274" offset="0.646" style="stop-opacity:1;stop-color:#aaacae"/>
      <stop id="stop1276" offset="0.8876" style="stop-opacity:1;stop-color:#858789"/>
      <stop id="stop1278" offset="1" style="stop-opacity:1;stop-color:#96989b"/>
    </radialGradient>
    <radialGradient id="radialGradient1294" spreadMethod="pad" gradientTransform="matrix(-1.474762,6.4119568,6.4119568,1.474762,455.47852,319.5)" gradientUnits="userSpaceOnUse" r="1" cy="0" cx="0">
      <stop id="stop1296" offset="0" style="stop-opacity:1;stop-color:#ffffff"/>
      <stop id="stop1298" offset="0.0634" style="stop-opacity:1;stop-color:#ffffff"/>
      <stop id="stop1300" offset="1" style="stop-opacity:1;stop-color:#bec0c2"/>
    </radialGradient>
    <radialGradient id="radialGradient1316" spreadMethod="pad" gradientTransform="matrix(-1.8257141,7.937851,7.937851,1.8257141,463.81836,323.86426)" gradientUnits="userSpaceOnUse" r="1" cy="0" cx="0">
      <stop id="stop1318" offset="0" style="stop-opacity:1;stop-color:#ffffff"/>
      <stop id="stop1320" offset="0.0634" style="stop-opacity:1;stop-color:#ffffff"/>
      <stop id="stop1322" offset="1" style="stop-opacity:1;stop-color:#bec0c2"/>
    </radialGradient>
  </defs>
  <g transform="matrix(1, 0, 0, 1, 11.14538, 12.866879)">
    <g id="g932" transform="matrix(4.294673, 0, 0, -4.294673, -1539.774536, 1813.437012)" style="">
      <g id="g934">
        <g id="g940">
          <g id="g942">
            <path id="path952" style="fill:url(#linearGradient944);stroke:none" d="m 459.02,355.484 -6.235,-2.013 c -0.554,-0.177 -0.854,-0.768 -0.674,-1.322 l 0,0 c 0.178,-0.551 0.768,-0.854 1.321,-0.677 l 0,0 6.23,2.011 c 0.554,0.18 0.86,0.77 0.679,1.324 l 0,0 c -0.141,0.444 -0.555,0.728 -0.999,0.728 l 0,0 c -0.107,0 -0.215,-0.016 -0.322,-0.051"/>
          </g>
        </g>
      </g>
    </g>
    <g id="g954" transform="matrix(4.294673, 0, 0, -4.294673, -1539.774536, 1813.437012)" style="">
      <g id="g956">
        <g id="g962">
          <g id="g964">
            <path id="path974" style="fill:url(#radialGradient966);stroke:none" d="m 421.289,398.493 c 3.848,-4.483 3.298,-1.718 3.298,-1.718 l 0,0 c 0,0 7.516,-2.382 17.049,9.594 l 0,0 c -3.487,1.696 -6.491,2.408 -9.039,2.408 l 0,0 c -6.92,0.001 -10.484,-5.248 -11.308,-10.284"/>
          </g>
        </g>
      </g>
    </g>
    <g id="g976" transform="matrix(4.294673, 0, 0, -4.294673, -1539.774536, 1813.437012)" style="">
      <g id="g978">
        <g id="g984">
          <g id="g986">
            <path id="path996" style="fill:url(#radialGradient988);stroke:none" d="m 433.706,407.087 c -6.239,-0.906 -9.484,-5.236 -10.417,-9.238 l 0,0 c -0.291,-1.243 -0.498,-1.146 1.81,-2.61 l 0,0 c 1.71,-0.694 1.106,-1.143 1.106,-1.143 l 0,0 c 0,0 10.032,-2.046 15.416,12.221 l 0,0 c -1.675,0.365 -4.481,0.852 -6.603,0.852 l 0,0 c -0.48,0 -0.924,-0.025 -1.312,-0.082"/>
          </g>
        </g>
      </g>
    </g>
    <g id="g998" transform="matrix(4.294673, 0, 0, -4.294673, -1539.774536, 1813.437012)" style="">
      <g id="g1000">
        <g id="g1006">
          <g id="g1008">
            <path id="path1018" style="fill:url(#radialGradient1010);stroke:none" d="m 405.909,402.512 c 4.6,-3.048 3.404,-0.703 3.404,-0.703 l 0,0 c 0,0 9.398,0.88 11.976,13.443 l 0,0 c -1.529,0.272 -2.92,0.398 -4.183,0.398 l 0,0 c -9.682,0 -11.855,-7.406 -11.197,-13.138"/>
          </g>
        </g>
      </g>
    </g>
    <g id="g1020" transform="matrix(4.294673, 0, 0, -4.294673, -1539.774536, 1813.437012)" style="">
      <g id="g1022">
        <g id="g1028">
          <g id="g1030">
            <path id="path1042" style="fill:url(#radialGradient1032);stroke:none" d="m 439.34,357.486 c -22.461,-2.427 -30.349,-18.815 -30.349,-18.815 l 0,0 c 0,0 8.217,-8.77 13.176,-11.146 l 0,0 c 8.028,-3.845 17.727,-4.348 25.756,0 l 0,0 c 11.644,6.308 13.702,30.12 -5.715,30.122 l 0,0 c -0.91,0 -1.864,-0.052 -2.868,-0.161"/>
          </g>
        </g>
      </g>
    </g>
    <g id="g1044" transform="matrix(4.294673, 0, 0, -4.294673, -1539.774536, 1813.437012)" style="">
      <g clip-path="url(#clipPath1048)" id="g1046">
        <g transform="translate(439.3398,357.4863)" id="g1052">
          <path id="path1054" style="fill:#858789;fill-opacity:1;fill-rule:nonzero;stroke:none" d="m 0,0 c -6.045,-0.652 -11.025,-2.322 -15.092,-4.407 l -2.731,-7.529 1.876,-8.73 c 0,0 8.511,1.356 14.683,10.281 5.303,7.668 7.528,8.767 10.72,9.399 C 6.963,0.008 3.832,0.415 0,0"/>
        </g>
        <g transform="translate(453.75,333.2256)" id="g1056">
          <path id="path1058" style="fill:#858789;fill-opacity:1;fill-rule:nonzero;stroke:none" d="m 0,0 c 1.85,2.999 2.916,6.584 2.998,10.076 -9.54,2.82 -13.716,-2.313 -13.716,-2.313 L -4.962,0.57 0,0 Z"/>
        </g>
        <g transform="translate(418.6069,338.4121)" id="g1060">
          <path id="path1062" style="fill:#858789;fill-opacity:1;fill-rule:nonzero;stroke:none" d="m 0,0 -2.953,-6.173 c 2.219,-1.94 4.61,-3.8 6.513,-4.714 0.106,-0.05 0.219,-0.094 0.324,-0.146 4.04,6.287 2.177,12.068 2.177,12.068 L 0,0 Z"/>
        </g>
      </g>
    </g>
    <g id="g1064" transform="matrix(4.294673, 0, 0, -4.294673, -1539.774536, 1813.437012)" style="">
      <g id="g1066">
        <g id="g1072">
          <g id="g1074">
            <path id="path1086" style="fill:url(#radialGradient1076);stroke:none" d="m 398.177,341.734 7.243,-19.461 c 0,0 16.212,5.29 18.673,11.985 l 0,0 c 2.455,6.693 -1.24,11.305 -6.699,12.501 l 0,0 c -0.652,0.143 -1.365,0.207 -2.12,0.207 l 0,0 c -6.82,0 -17.097,-5.232 -17.097,-5.232"/>
          </g>
        </g>
      </g>
    </g>
    <g id="g1088" transform="matrix(4.294673, 0, 0, -4.294673, -1539.774536, 1813.437012)" style="">
      <g id="g1090">
        <g id="g1096">
          <g id="g1098">
            <path id="path1108" style="fill:url(#radialGradient1100);stroke:none" d="m 398.183,341.727 3.631,-9.759 c 2.107,0.695 3.63,2.63 3.63,4.913 l 0,0 c 0,2.868 -2.397,5.192 -5.357,5.192 l 0,0 c -0.673,0 -1.313,-0.125 -1.904,-0.346"/>
          </g>
        </g>
      </g>
    </g>
    <g id="g1110" transform="matrix(4.294673, 0, 0, -4.294673, -1539.774536, 1813.437012)" style="">
      <g id="g1112">
        <g id="g1118">
          <g id="g1120">
            <path id="path1132" style="fill:url(#radialGradient1122);stroke:none" d="m 402.689,404.523 c -28.496,-3.927 -19.665,-30.948 -26.201,-31.782 l 0,0 c -9.887,-1.256 -10.188,-19.863 -8.627,-26.418 l 0,0 c 0,0 5.59,1.79 7.187,-0.542 l 0,0 c 4.315,-6.29 14.21,-9.971 20.487,-10.784 l 0,0 c 20.852,-2.695 34.209,1.657 43.197,14.6 l 0,0 c 7.034,10.127 9.03,24.805 -0.597,41.118 l 0,0 c -5.399,9.153 -14.174,14.394 -27.369,14.394 l 0,0 c -2.528,0 -5.218,-0.192 -8.077,-0.586"/>
          </g>
        </g>
      </g>
    </g>
    <g id="g1134" transform="matrix(4.294673, 0, 0, -4.294673, -1539.774536, 1813.437012)" style="">
      <g id="g1136">
        <g id="g1142">
          <g id="g1144">
            <path id="path1160" style="fill:url(#radialGradient1146);stroke:none" d="m 368.039,365.194 c 3.269,-2.533 10.415,6.459 10.415,6.459 l 0,0 c 0,0 -11.673,8.278 -13.631,17.007 l 0,0 c 0,0 -9.229,-13.83 3.216,-23.466"/>
          </g>
        </g>
      </g>
    </g>
    <g id="g1162" transform="matrix(4.294673, 0, 0, -4.294673, -1539.774536, 1813.437012)" style="">
      <g clip-path="url(#clipPath1166)" id="g1164">
        <g transform="translate(388.3496,385.5034)" id="g1170">
          <path id="path1172" style="fill:none;stroke:#373535;stroke-width:2;stroke-linecap:round;stroke-linejoin:round;stroke-miterlimit:4;stroke-dasharray:none;stroke-opacity:1" d="M 0,0 C 0,0 4.672,3.415 7.37,-2.515"/>
        </g>
      </g>
    </g>
    <g id="g1174" transform="matrix(4.294673, 0, 0, -4.294673, -1539.774536, 1813.437012)" style="">
      <g id="g1176">
        <g id="g1182">
          <g id="g1184">
            <path id="path1194" style="fill:url(#radialGradient1186);stroke:none" d="m 385.184,376.913 c 0,-1.416 1.148,-2.563 2.559,-2.563 l 0,0 c 1.42,0 2.562,1.147 2.562,2.563 l 0,0 c 0,1.412 -1.142,2.558 -2.562,2.558 l 0,0 c -1.411,0 -2.559,-1.146 -2.559,-2.558"/>
          </g>
        </g>
      </g>
    </g>
    <g id="g1196" transform="matrix(4.294673, 0, 0, -4.294673, -1539.774536, 1813.437012)" style="">
      <g id="g1198">
        <g id="g1204">
          <g id="g1206">
            <path id="path1218" style="fill:url(#radialGradient1208);stroke:none" d="m 458.926,353.948 c 5.664,-3.828 7.839,6.031 7.839,6.031 l 0,0 c 0,0 -2.571,-1.104 -5.024,-0.2 l 0,0 c -0.401,0.148 -0.769,0.215 -1.106,0.215 l 0,0 c -2.878,-0.001 -3.447,-4.873 -1.709,-6.046"/>
          </g>
        </g>
      </g>
    </g>
    <g id="g1220" transform="matrix(4.294673, 0, 0, -4.294673, -1539.774536, 1813.437012)" style="">
      <g clip-path="url(#clipPath1224)" id="g1222">
        <g transform="translate(402.0171,363.0942)" id="g1228">
          <path id="path1230" style="fill:none;stroke:#fac1ba;stroke-width:2;stroke-linecap:round;stroke-linejoin:round;stroke-miterlimit:4;stroke-dasharray:none;stroke-opacity:1" d="M 0,0 C 0,0 4.454,3.898 8.354,3.34"/>
        </g>
        <g transform="translate(406.4712,360.8672)" id="g1232">
          <path id="path1234" style="fill:none;stroke:#fac1ba;stroke-width:2;stroke-linecap:round;stroke-linejoin:round;stroke-miterlimit:4;stroke-dasharray:none;stroke-opacity:1" d="M 0,0 C 0,0 3.899,1.671 7.243,-0.558"/>
        </g>
      </g>
    </g>
    <g id="g1236" transform="matrix(4.294673, 0, 0, -4.294673, -1539.774536, 1813.437012)" style="">
      <g id="g1238">
        <g id="g1244">
          <g id="g1246">
            <path id="path1256" style="fill:url(#radialGradient1248);stroke:none" d="m 401.776,332.065 3.633,-9.762 c 2.038,0.734 3.495,2.632 3.495,4.868 l 0,0 c 0,2.868 -2.396,5.194 -5.353,5.194 l 0,0 c -0.624,0 -1.22,-0.109 -1.775,-0.3"/>
          </g>
        </g>
      </g>
    </g>
    <g id="g1258" transform="matrix(4.294673, 0, 0, -4.294673, -1539.774536, 1813.437012)" style="">
      <g id="g1260">
        <g id="g1266">
          <g id="g1268">
            <path id="path1280" style="fill:url(#radialGradient1270);stroke:none" d="m 440.614,334.703 c 0.066,-6.19 8.517,-16.279 8.517,-16.279 l 0,0 16.037,10.563 c 0,0 -8.127,13.515 -14.67,14.343 l 0,0 c -0.549,0.07 -1.076,0.103 -1.581,0.103 l 0,0 c -5.507,0 -8.348,-3.994 -8.303,-8.73"/>
          </g>
        </g>
      </g>
    </g>
    <g id="g1282" transform="matrix(4.294673, 0, 0, -4.294673, -1539.774536, 1813.437012)" style="">
      <g id="g1284">
        <g id="g1290">
          <g id="g1292">
            <path id="path1302" style="fill:url(#radialGradient1294);stroke:none" d="m 451.997,325.981 c -2.586,-0.595 -4.186,-3.237 -3.569,-5.903 l 0,0 c 0.139,-0.609 0.385,-1.159 0.704,-1.648 l 0,0 8.045,5.297 c -0.88,1.457 -2.447,2.373 -4.131,2.373 l 0,0 c -0.346,0 -0.698,-0.038 -1.049,-0.119"/>
          </g>
        </g>
      </g>
    </g>
    <g id="g1304" transform="matrix(4.294673, 0, 0, -4.294673, -1539.774536, 1813.437012)" style="">
      <g id="g1306">
        <g id="g1312">
          <g id="g1314">
            <path id="path1324" style="fill:url(#radialGradient1316);stroke:none" d="m 460.034,331.114 c -2.587,-0.594 -4.188,-3.238 -3.573,-5.902 l 0,0 c 0.128,-0.563 0.35,-1.079 0.637,-1.541 l 0,0 8.045,5.301 c -0.892,1.391 -2.423,2.261 -4.062,2.261 l 0,0 c -0.346,0 -0.696,-0.039 -1.047,-0.119"/>
          </g>
        </g>
      </g>
    </g>
  </g>
</svg>